M48
; DRILL file {KiCad (6.0.2)} date Thu Jun  1 18:25:27 2023
; FORMAT={-:-/ absolute / metric / decimal}
; #@! TF.CreationDate,2023-06-01T18:25:27-05:00
; #@! TF.GenerationSoftware,Kicad,Pcbnew,(6.0.2)
; #@! TF.FileFunction,MixedPlating,1,2
FMAT,2
METRIC
; #@! TA.AperFunction,Plated,PTH,ComponentDrill
T1C0.800
; #@! TA.AperFunction,Plated,PTH,ComponentDrill
T2C0.900
; #@! TA.AperFunction,Plated,PTH,ComponentDrill
T3C0.950
; #@! TA.AperFunction,Plated,PTH,ViaDrill
T4C1.000
; #@! TA.AperFunction,Plated,PTH,ComponentDrill
T5C1.000
; #@! TA.AperFunction,Plated,PTH,ComponentDrill
T6C1.020
; #@! TA.AperFunction,Plated,PTH,ComponentDrill
T7C2.700
%
G90
G05
T1
X152.156Y-75.438
X152.156Y-77.978
X152.156Y-80.518
X152.156Y-83.058
X152.156Y-85.598
X152.156Y-88.138
X152.156Y-90.678
X152.156Y-93.218
X164.856Y-75.438
X164.856Y-77.978
X164.856Y-80.518
X164.856Y-83.058
X164.856Y-85.598
X164.856Y-88.138
X164.856Y-90.678
X164.856Y-93.218
T2
X164.592Y-102.108
X164.592Y-104.648
X172.72Y-102.113
X172.72Y-104.653
X181.356Y-102.108
X181.356Y-104.648
T3
X145.334Y-80.518
X145.334Y-83.018
X145.334Y-85.518
X145.334Y-88.018
T4
X110.49Y-70.612
X119.126Y-81.026
X119.126Y-83.566
X120.65Y-67.564
X148.59Y-72.644
X155.194Y-98.806
X162.052Y-75.438
X162.052Y-77.978
X167.64Y-88.138
X167.64Y-90.678
X173.482Y-74.93
X179.07Y-74.93
T5
X104.877Y-88.377
X104.877Y-90.917
X104.877Y-93.457
X104.877Y-95.997
X104.877Y-98.537
X104.877Y-101.077
X104.877Y-103.617
X104.877Y-106.157
X110.465Y-73.396
X110.465Y-75.936
X110.465Y-78.476
X110.465Y-81.016
X110.465Y-83.556
X110.465Y-86.096
X110.465Y-88.636
X110.465Y-91.176
X110.465Y-93.716
X110.465Y-96.256
X110.465Y-98.796
X110.465Y-101.336
X110.465Y-103.876
X110.465Y-106.416
X138.405Y-73.396
X138.405Y-75.936
X138.405Y-78.476
X138.405Y-81.016
X138.405Y-83.556
X138.405Y-86.096
X138.405Y-88.636
X138.405Y-91.176
X138.405Y-93.716
X138.405Y-96.256
X138.405Y-98.796
X138.405Y-101.336
X138.405Y-103.876
X138.405Y-106.416
X143.53Y-75.692
X146.07Y-75.692
X170.434Y-72.405
X170.434Y-74.945
X170.434Y-77.485
X176.276Y-72.39
X176.276Y-74.93
X176.276Y-77.47
X181.864Y-72.405
X181.864Y-74.945
X181.864Y-77.485
X182.133Y-82.296
X184.673Y-82.296
X187.213Y-82.296
T6
X116.586Y-73.406
X116.586Y-75.946
X116.586Y-78.486
X116.586Y-81.026
X116.586Y-83.566
X116.586Y-86.106
X116.586Y-88.646
X116.586Y-91.186
X116.586Y-93.726
X116.586Y-96.266
X116.586Y-98.806
X116.586Y-101.346
X116.586Y-103.886
X116.586Y-106.426
X119.126Y-106.426
X121.666Y-106.426
X124.206Y-106.426
X126.746Y-106.426
X129.286Y-106.426
X131.826Y-73.406
X131.826Y-75.946
X131.826Y-78.486
X131.826Y-81.026
X131.826Y-83.566
X131.826Y-86.106
X131.826Y-88.646
X131.826Y-91.186
X131.826Y-93.726
X131.826Y-96.266
X131.826Y-98.806
X131.826Y-101.346
X131.826Y-103.886
X131.826Y-106.426
T7
X102.362Y-69.596
X102.362Y-111.76
X187.706Y-69.596
X187.706Y-111.76
T5
G00X182.976Y-88.974
M15
G01X182.976Y-90.974
M16
G05
G00X184.976Y-94.674
M15
G01X186.976Y-94.674
M16
G05
G00X188.976Y-88.974
M15
G01X188.976Y-90.974
M16
G05
T0
M30
