%TF.GenerationSoftware,KiCad,Pcbnew,(6.0.2)*%
%TF.CreationDate,2023-06-01T09:29:34-05:00*%
%TF.ProjectId,MC_Circuit_v2,4d435f43-6972-4637-9569-745f76322e6b,rev?*%
%TF.SameCoordinates,Original*%
%TF.FileFunction,Legend,Bot*%
%TF.FilePolarity,Positive*%
%FSLAX46Y46*%
G04 Gerber Fmt 4.6, Leading zero omitted, Abs format (unit mm)*
G04 Created by KiCad (PCBNEW (6.0.2)) date 2023-06-01 09:29:34*
%MOMM*%
%LPD*%
G01*
G04 APERTURE LIST*
%ADD10C,0.150000*%
%ADD11C,0.120000*%
G04 APERTURE END LIST*
D10*
%TO.C,U2*%
X152907904Y-107584380D02*
X152907904Y-108393904D01*
X152860285Y-108489142D01*
X152812666Y-108536761D01*
X152717428Y-108584380D01*
X152526952Y-108584380D01*
X152431714Y-108536761D01*
X152384095Y-108489142D01*
X152336476Y-108393904D01*
X152336476Y-107584380D01*
X151907904Y-107679619D02*
X151860285Y-107632000D01*
X151765047Y-107584380D01*
X151526952Y-107584380D01*
X151431714Y-107632000D01*
X151384095Y-107679619D01*
X151336476Y-107774857D01*
X151336476Y-107870095D01*
X151384095Y-108012952D01*
X151955523Y-108584380D01*
X151336476Y-108584380D01*
%TO.C,R3*%
X159478832Y-104735333D02*
X159002642Y-104402000D01*
X159478832Y-104163904D02*
X158478832Y-104163904D01*
X158478832Y-104544857D01*
X158526452Y-104640095D01*
X158574071Y-104687714D01*
X158669309Y-104735333D01*
X158812166Y-104735333D01*
X158907404Y-104687714D01*
X158955023Y-104640095D01*
X159002642Y-104544857D01*
X159002642Y-104163904D01*
X158478832Y-105068666D02*
X158478832Y-105687714D01*
X158859785Y-105354380D01*
X158859785Y-105497238D01*
X158907404Y-105592476D01*
X158955023Y-105640095D01*
X159050261Y-105687714D01*
X159288356Y-105687714D01*
X159383594Y-105640095D01*
X159431213Y-105592476D01*
X159478832Y-105497238D01*
X159478832Y-105211523D01*
X159431213Y-105116285D01*
X159383594Y-105068666D01*
%TO.C,R2*%
X181522666Y-97988380D02*
X181856000Y-97512190D01*
X182094095Y-97988380D02*
X182094095Y-96988380D01*
X181713142Y-96988380D01*
X181617904Y-97036000D01*
X181570285Y-97083619D01*
X181522666Y-97178857D01*
X181522666Y-97321714D01*
X181570285Y-97416952D01*
X181617904Y-97464571D01*
X181713142Y-97512190D01*
X182094095Y-97512190D01*
X181141714Y-97083619D02*
X181094095Y-97036000D01*
X180998857Y-96988380D01*
X180760761Y-96988380D01*
X180665523Y-97036000D01*
X180617904Y-97083619D01*
X180570285Y-97178857D01*
X180570285Y-97274095D01*
X180617904Y-97416952D01*
X181189333Y-97988380D01*
X180570285Y-97988380D01*
%TO.C,R1*%
X172659602Y-97988380D02*
X172992936Y-97512190D01*
X173231031Y-97988380D02*
X173231031Y-96988380D01*
X172850078Y-96988380D01*
X172754840Y-97036000D01*
X172707221Y-97083619D01*
X172659602Y-97178857D01*
X172659602Y-97321714D01*
X172707221Y-97416952D01*
X172754840Y-97464571D01*
X172850078Y-97512190D01*
X173231031Y-97512190D01*
X171707221Y-97988380D02*
X172278650Y-97988380D01*
X171992936Y-97988380D02*
X171992936Y-96988380D01*
X172088174Y-97131238D01*
X172183412Y-97226476D01*
X172278650Y-97274095D01*
%TO.C,J8*%
X170100666Y-69302380D02*
X170100666Y-70016666D01*
X170053047Y-70159523D01*
X169957809Y-70254761D01*
X169814952Y-70302380D01*
X169719714Y-70302380D01*
X170719714Y-69730952D02*
X170624476Y-69683333D01*
X170576857Y-69635714D01*
X170529238Y-69540476D01*
X170529238Y-69492857D01*
X170576857Y-69397619D01*
X170624476Y-69350000D01*
X170719714Y-69302380D01*
X170910190Y-69302380D01*
X171005428Y-69350000D01*
X171053047Y-69397619D01*
X171100666Y-69492857D01*
X171100666Y-69540476D01*
X171053047Y-69635714D01*
X171005428Y-69683333D01*
X170910190Y-69730952D01*
X170719714Y-69730952D01*
X170624476Y-69778571D01*
X170576857Y-69826190D01*
X170529238Y-69921428D01*
X170529238Y-70111904D01*
X170576857Y-70207142D01*
X170624476Y-70254761D01*
X170719714Y-70302380D01*
X170910190Y-70302380D01*
X171005428Y-70254761D01*
X171053047Y-70207142D01*
X171100666Y-70111904D01*
X171100666Y-69921428D01*
X171053047Y-69826190D01*
X171005428Y-69778571D01*
X170910190Y-69730952D01*
X169148285Y-80716380D02*
X169148285Y-79716380D01*
X169481619Y-80430666D01*
X169814952Y-79716380D01*
X169814952Y-80716380D01*
X170243523Y-80668761D02*
X170386380Y-80716380D01*
X170624476Y-80716380D01*
X170719714Y-80668761D01*
X170767333Y-80621142D01*
X170814952Y-80525904D01*
X170814952Y-80430666D01*
X170767333Y-80335428D01*
X170719714Y-80287809D01*
X170624476Y-80240190D01*
X170434000Y-80192571D01*
X170338761Y-80144952D01*
X170291142Y-80097333D01*
X170243523Y-80002095D01*
X170243523Y-79906857D01*
X170291142Y-79811619D01*
X170338761Y-79764000D01*
X170434000Y-79716380D01*
X170672095Y-79716380D01*
X170814952Y-79764000D01*
X171148285Y-79716380D02*
X171767333Y-79716380D01*
X171434000Y-80097333D01*
X171576857Y-80097333D01*
X171672095Y-80144952D01*
X171719714Y-80192571D01*
X171767333Y-80287809D01*
X171767333Y-80525904D01*
X171719714Y-80621142D01*
X171672095Y-80668761D01*
X171576857Y-80716380D01*
X171291142Y-80716380D01*
X171195904Y-80668761D01*
X171148285Y-80621142D01*
%TO.C,J7*%
X175942666Y-69302380D02*
X175942666Y-70016666D01*
X175895047Y-70159523D01*
X175799809Y-70254761D01*
X175656952Y-70302380D01*
X175561714Y-70302380D01*
X176323619Y-69302380D02*
X176990285Y-69302380D01*
X176561714Y-70302380D01*
X174990285Y-80701380D02*
X174990285Y-79701380D01*
X175323619Y-80415666D01*
X175656952Y-79701380D01*
X175656952Y-80701380D01*
X176085523Y-80653761D02*
X176228380Y-80701380D01*
X176466476Y-80701380D01*
X176561714Y-80653761D01*
X176609333Y-80606142D01*
X176656952Y-80510904D01*
X176656952Y-80415666D01*
X176609333Y-80320428D01*
X176561714Y-80272809D01*
X176466476Y-80225190D01*
X176276000Y-80177571D01*
X176180761Y-80129952D01*
X176133142Y-80082333D01*
X176085523Y-79987095D01*
X176085523Y-79891857D01*
X176133142Y-79796619D01*
X176180761Y-79749000D01*
X176276000Y-79701380D01*
X176514095Y-79701380D01*
X176656952Y-79749000D01*
X177037904Y-79796619D02*
X177085523Y-79749000D01*
X177180761Y-79701380D01*
X177418857Y-79701380D01*
X177514095Y-79749000D01*
X177561714Y-79796619D01*
X177609333Y-79891857D01*
X177609333Y-79987095D01*
X177561714Y-80129952D01*
X176990285Y-80701380D01*
X177609333Y-80701380D01*
%TO.C,J6*%
X181530666Y-69302380D02*
X181530666Y-70016666D01*
X181483047Y-70159523D01*
X181387809Y-70254761D01*
X181244952Y-70302380D01*
X181149714Y-70302380D01*
X182435428Y-69302380D02*
X182244952Y-69302380D01*
X182149714Y-69350000D01*
X182102095Y-69397619D01*
X182006857Y-69540476D01*
X181959238Y-69730952D01*
X181959238Y-70111904D01*
X182006857Y-70207142D01*
X182054476Y-70254761D01*
X182149714Y-70302380D01*
X182340190Y-70302380D01*
X182435428Y-70254761D01*
X182483047Y-70207142D01*
X182530666Y-70111904D01*
X182530666Y-69873809D01*
X182483047Y-69778571D01*
X182435428Y-69730952D01*
X182340190Y-69683333D01*
X182149714Y-69683333D01*
X182054476Y-69730952D01*
X182006857Y-69778571D01*
X181959238Y-69873809D01*
X180832285Y-80716380D02*
X180832285Y-79716380D01*
X181165619Y-80430666D01*
X181498952Y-79716380D01*
X181498952Y-80716380D01*
X181927523Y-80668761D02*
X182070380Y-80716380D01*
X182308476Y-80716380D01*
X182403714Y-80668761D01*
X182451333Y-80621142D01*
X182498952Y-80525904D01*
X182498952Y-80430666D01*
X182451333Y-80335428D01*
X182403714Y-80287809D01*
X182308476Y-80240190D01*
X182118000Y-80192571D01*
X182022761Y-80144952D01*
X181975142Y-80097333D01*
X181927523Y-80002095D01*
X181927523Y-79906857D01*
X181975142Y-79811619D01*
X182022761Y-79764000D01*
X182118000Y-79716380D01*
X182356095Y-79716380D01*
X182498952Y-79764000D01*
X183451333Y-80716380D02*
X182879904Y-80716380D01*
X183165619Y-80716380D02*
X183165619Y-79716380D01*
X183070380Y-79859238D01*
X182975142Y-79954476D01*
X182879904Y-80002095D01*
%TO.C,D4*%
X149582095Y-76398380D02*
X149582095Y-75398380D01*
X149344000Y-75398380D01*
X149201142Y-75446000D01*
X149105904Y-75541238D01*
X149058285Y-75636476D01*
X149010666Y-75826952D01*
X149010666Y-75969809D01*
X149058285Y-76160285D01*
X149105904Y-76255523D01*
X149201142Y-76350761D01*
X149344000Y-76398380D01*
X149582095Y-76398380D01*
X148153523Y-75731714D02*
X148153523Y-76398380D01*
X148391619Y-75350761D02*
X148629714Y-76065047D01*
X148010666Y-76065047D01*
%TO.C,C7*%
X147740666Y-95099142D02*
X147788285Y-95146761D01*
X147931142Y-95194380D01*
X148026380Y-95194380D01*
X148169238Y-95146761D01*
X148264476Y-95051523D01*
X148312095Y-94956285D01*
X148359714Y-94765809D01*
X148359714Y-94622952D01*
X148312095Y-94432476D01*
X148264476Y-94337238D01*
X148169238Y-94242000D01*
X148026380Y-94194380D01*
X147931142Y-94194380D01*
X147788285Y-94242000D01*
X147740666Y-94289619D01*
X147407333Y-94194380D02*
X146740666Y-94194380D01*
X147169238Y-95194380D01*
%TO.C,C6*%
X145454666Y-105767142D02*
X145502285Y-105814761D01*
X145645142Y-105862380D01*
X145740380Y-105862380D01*
X145883238Y-105814761D01*
X145978476Y-105719523D01*
X146026095Y-105624285D01*
X146073714Y-105433809D01*
X146073714Y-105290952D01*
X146026095Y-105100476D01*
X145978476Y-105005238D01*
X145883238Y-104910000D01*
X145740380Y-104862380D01*
X145645142Y-104862380D01*
X145502285Y-104910000D01*
X145454666Y-104957619D01*
X144597523Y-104862380D02*
X144788000Y-104862380D01*
X144883238Y-104910000D01*
X144930857Y-104957619D01*
X145026095Y-105100476D01*
X145073714Y-105290952D01*
X145073714Y-105671904D01*
X145026095Y-105767142D01*
X144978476Y-105814761D01*
X144883238Y-105862380D01*
X144692761Y-105862380D01*
X144597523Y-105814761D01*
X144549904Y-105767142D01*
X144502285Y-105671904D01*
X144502285Y-105433809D01*
X144549904Y-105338571D01*
X144597523Y-105290952D01*
X144692761Y-105243333D01*
X144883238Y-105243333D01*
X144978476Y-105290952D01*
X145026095Y-105338571D01*
X145073714Y-105433809D01*
%TO.C,C5*%
X145454666Y-100023142D02*
X145502285Y-100070761D01*
X145645142Y-100118380D01*
X145740380Y-100118380D01*
X145883238Y-100070761D01*
X145978476Y-99975523D01*
X146026095Y-99880285D01*
X146073714Y-99689809D01*
X146073714Y-99546952D01*
X146026095Y-99356476D01*
X145978476Y-99261238D01*
X145883238Y-99166000D01*
X145740380Y-99118380D01*
X145645142Y-99118380D01*
X145502285Y-99166000D01*
X145454666Y-99213619D01*
X144549904Y-99118380D02*
X145026095Y-99118380D01*
X145073714Y-99594571D01*
X145026095Y-99546952D01*
X144930857Y-99499333D01*
X144692761Y-99499333D01*
X144597523Y-99546952D01*
X144549904Y-99594571D01*
X144502285Y-99689809D01*
X144502285Y-99927904D01*
X144549904Y-100023142D01*
X144597523Y-100070761D01*
X144692761Y-100118380D01*
X144930857Y-100118380D01*
X145026095Y-100070761D01*
X145073714Y-100023142D01*
%TO.C,C4*%
X129706666Y-80847142D02*
X129754285Y-80894761D01*
X129897142Y-80942380D01*
X129992380Y-80942380D01*
X130135238Y-80894761D01*
X130230476Y-80799523D01*
X130278095Y-80704285D01*
X130325714Y-80513809D01*
X130325714Y-80370952D01*
X130278095Y-80180476D01*
X130230476Y-80085238D01*
X130135238Y-79990000D01*
X129992380Y-79942380D01*
X129897142Y-79942380D01*
X129754285Y-79990000D01*
X129706666Y-80037619D01*
X128849523Y-80275714D02*
X128849523Y-80942380D01*
X129087619Y-79894761D02*
X129325714Y-80609047D01*
X128706666Y-80609047D01*
%TO.C,C3*%
X129706666Y-75795142D02*
X129754285Y-75842761D01*
X129897142Y-75890380D01*
X129992380Y-75890380D01*
X130135238Y-75842761D01*
X130230476Y-75747523D01*
X130278095Y-75652285D01*
X130325714Y-75461809D01*
X130325714Y-75318952D01*
X130278095Y-75128476D01*
X130230476Y-75033238D01*
X130135238Y-74938000D01*
X129992380Y-74890380D01*
X129897142Y-74890380D01*
X129754285Y-74938000D01*
X129706666Y-74985619D01*
X129373333Y-74890380D02*
X128754285Y-74890380D01*
X129087619Y-75271333D01*
X128944761Y-75271333D01*
X128849523Y-75318952D01*
X128801904Y-75366571D01*
X128754285Y-75461809D01*
X128754285Y-75699904D01*
X128801904Y-75795142D01*
X128849523Y-75842761D01*
X128944761Y-75890380D01*
X129230476Y-75890380D01*
X129325714Y-75842761D01*
X129373333Y-75795142D01*
%TO.C,C2*%
X129706666Y-78815142D02*
X129754285Y-78862761D01*
X129897142Y-78910380D01*
X129992380Y-78910380D01*
X130135238Y-78862761D01*
X130230476Y-78767523D01*
X130278095Y-78672285D01*
X130325714Y-78481809D01*
X130325714Y-78338952D01*
X130278095Y-78148476D01*
X130230476Y-78053238D01*
X130135238Y-77958000D01*
X129992380Y-77910380D01*
X129897142Y-77910380D01*
X129754285Y-77958000D01*
X129706666Y-78005619D01*
X129325714Y-78005619D02*
X129278095Y-77958000D01*
X129182857Y-77910380D01*
X128944761Y-77910380D01*
X128849523Y-77958000D01*
X128801904Y-78005619D01*
X128754285Y-78100857D01*
X128754285Y-78196095D01*
X128801904Y-78338952D01*
X129373333Y-78910380D01*
X128754285Y-78910380D01*
%TO.C,C1*%
X129706666Y-73763142D02*
X129754285Y-73810761D01*
X129897142Y-73858380D01*
X129992380Y-73858380D01*
X130135238Y-73810761D01*
X130230476Y-73715523D01*
X130278095Y-73620285D01*
X130325714Y-73429809D01*
X130325714Y-73286952D01*
X130278095Y-73096476D01*
X130230476Y-73001238D01*
X130135238Y-72906000D01*
X129992380Y-72858380D01*
X129897142Y-72858380D01*
X129754285Y-72906000D01*
X129706666Y-72953619D01*
X128754285Y-73858380D02*
X129325714Y-73858380D01*
X129040000Y-73858380D02*
X129040000Y-72858380D01*
X129135238Y-73001238D01*
X129230476Y-73096476D01*
X129325714Y-73144095D01*
D11*
%TO.C,U2*%
X148046000Y-107042000D02*
X154056000Y-107042000D01*
X150296000Y-100222000D02*
X154056000Y-100222000D01*
X154056000Y-100222000D02*
X154056000Y-101482000D01*
X154056000Y-107042000D02*
X154056000Y-105782000D01*
%TO.C,R3*%
X158291452Y-101626936D02*
X158291452Y-102081064D01*
X159761452Y-101626936D02*
X159761452Y-102081064D01*
%TO.C,R2*%
X181128936Y-99790000D02*
X181583064Y-99790000D01*
X181128936Y-98320000D02*
X181583064Y-98320000D01*
%TO.C,R1*%
X172492936Y-99795000D02*
X172947064Y-99795000D01*
X172492936Y-98325000D02*
X172947064Y-98325000D01*
%TO.C,D4*%
X146776000Y-71644000D02*
X142876000Y-71644000D01*
X146776000Y-71644000D02*
X146776000Y-73644000D01*
X146776000Y-73644000D02*
X142876000Y-73644000D01*
%TO.C,C7*%
X147835252Y-92483000D02*
X147312748Y-92483000D01*
X147835252Y-93953000D02*
X147312748Y-93953000D01*
%TO.C,C6*%
X145549252Y-102897000D02*
X145026748Y-102897000D01*
X145549252Y-104367000D02*
X145026748Y-104367000D01*
%TO.C,C5*%
X145549252Y-100611000D02*
X145026748Y-100611000D01*
X145549252Y-102081000D02*
X145026748Y-102081000D01*
%TO.C,C4*%
X127007252Y-81253000D02*
X126484748Y-81253000D01*
X127007252Y-79783000D02*
X126484748Y-79783000D01*
%TO.C,C3*%
X127007252Y-76173000D02*
X126484748Y-76173000D01*
X127007252Y-74703000D02*
X126484748Y-74703000D01*
%TO.C,C2*%
X127007252Y-79193000D02*
X126484748Y-79193000D01*
X127007252Y-77723000D02*
X126484748Y-77723000D01*
%TO.C,C1*%
X127007252Y-72671000D02*
X126484748Y-72671000D01*
X127007252Y-74141000D02*
X126484748Y-74141000D01*
%TD*%
M02*
