%TF.GenerationSoftware,KiCad,Pcbnew,(6.0.2)*%
%TF.CreationDate,2023-06-01T09:29:34-05:00*%
%TF.ProjectId,MC_Circuit_v2,4d435f43-6972-4637-9569-745f76322e6b,rev?*%
%TF.SameCoordinates,Original*%
%TF.FileFunction,Copper,L1,Top*%
%TF.FilePolarity,Positive*%
%FSLAX46Y46*%
G04 Gerber Fmt 4.6, Leading zero omitted, Abs format (unit mm)*
G04 Created by KiCad (PCBNEW (6.0.2)) date 2023-06-01 09:29:34*
%MOMM*%
%LPD*%
G01*
G04 APERTURE LIST*
G04 Aperture macros list*
%AMRoundRect*
0 Rectangle with rounded corners*
0 $1 Rounding radius*
0 $2 $3 $4 $5 $6 $7 $8 $9 X,Y pos of 4 corners*
0 Add a 4 corners polygon primitive as box body*
4,1,4,$2,$3,$4,$5,$6,$7,$8,$9,$2,$3,0*
0 Add four circle primitives for the rounded corners*
1,1,$1+$1,$2,$3*
1,1,$1+$1,$4,$5*
1,1,$1+$1,$6,$7*
1,1,$1+$1,$8,$9*
0 Add four rect primitives between the rounded corners*
20,1,$1+$1,$2,$3,$4,$5,0*
20,1,$1+$1,$4,$5,$6,$7,0*
20,1,$1+$1,$6,$7,$8,$9,0*
20,1,$1+$1,$8,$9,$2,$3,0*%
G04 Aperture macros list end*
%TA.AperFunction,ComponentPad*%
%ADD10R,1.700000X1.700000*%
%TD*%
%TA.AperFunction,ComponentPad*%
%ADD11O,1.700000X1.700000*%
%TD*%
%TA.AperFunction,ComponentPad*%
%ADD12C,4.700000*%
%TD*%
%TA.AperFunction,ComponentPad*%
%ADD13C,1.530000*%
%TD*%
%TA.AperFunction,ComponentPad*%
%ADD14RoundRect,0.250000X-0.725000X0.600000X-0.725000X-0.600000X0.725000X-0.600000X0.725000X0.600000X0*%
%TD*%
%TA.AperFunction,ComponentPad*%
%ADD15O,1.950000X1.700000*%
%TD*%
%TA.AperFunction,ComponentPad*%
%ADD16R,3.500000X3.500000*%
%TD*%
%TA.AperFunction,ComponentPad*%
%ADD17RoundRect,0.750000X-0.750000X-1.000000X0.750000X-1.000000X0.750000X1.000000X-0.750000X1.000000X0*%
%TD*%
%TA.AperFunction,ComponentPad*%
%ADD18RoundRect,0.875000X-0.875000X-0.875000X0.875000X-0.875000X0.875000X0.875000X-0.875000X0.875000X0*%
%TD*%
%TA.AperFunction,ComponentPad*%
%ADD19R,1.800000X1.800000*%
%TD*%
%TA.AperFunction,ComponentPad*%
%ADD20C,1.800000*%
%TD*%
%TA.AperFunction,ComponentPad*%
%ADD21R,1.600000X1.600000*%
%TD*%
%TA.AperFunction,ComponentPad*%
%ADD22O,1.600000X1.600000*%
%TD*%
%TA.AperFunction,ViaPad*%
%ADD23C,2.000000*%
%TD*%
%TA.AperFunction,Conductor*%
%ADD24C,0.500000*%
%TD*%
G04 APERTURE END LIST*
D10*
%TO.P,SW1,1,A*%
%TO.N,VMOT*%
X182133000Y-82296000D03*
D11*
%TO.P,SW1,2,B*%
%TO.N,Net-(J5-Pad1)*%
X184673000Y-82296000D03*
%TO.P,SW1,3,C*%
%TO.N,unconnected-(SW1-Pad3)*%
X187213000Y-82296000D03*
%TD*%
D12*
%TO.P,,1*%
%TO.N,N/C*%
X102362000Y-111760000D03*
%TD*%
%TO.P,,1*%
%TO.N,N/C*%
X187706000Y-111760000D03*
%TD*%
%TO.P,,1*%
%TO.N,N/C*%
X187706000Y-69596000D03*
%TD*%
%TO.P,REF\u002A\u002A,1*%
%TO.N,N/C*%
X102362000Y-69596000D03*
%TD*%
D13*
%TO.P,U1,0,0*%
%TO.N,Net-(U1-Pad0)*%
X116586000Y-75946000D03*
%TO.P,U1,1,1*%
%TO.N,Net-(U1-Pad1)*%
X116586000Y-78486000D03*
%TO.P,U1,2,2*%
%TO.N,DIR*%
X116586000Y-81026000D03*
%TO.P,U1,3,3*%
%TO.N,STEP*%
X116586000Y-83566000D03*
%TO.P,U1,3.3V_1,3.3V_1*%
%TO.N,3.3V*%
X121666000Y-106426000D03*
%TO.P,U1,3.3V_2,3.3V_2*%
X131826000Y-78486000D03*
%TO.P,U1,4,4*%
%TO.N,Net-(U1-Pad4)*%
X116586000Y-86106000D03*
%TO.P,U1,5,5*%
%TO.N,Net-(U1-Pad5)*%
X116586000Y-88646000D03*
%TO.P,U1,6,6*%
%TO.N,Net-(U1-Pad6)*%
X116586000Y-91186000D03*
%TO.P,U1,7,7*%
%TO.N,Net-(U1-Pad7)*%
X116586000Y-93726000D03*
%TO.P,U1,8,8*%
%TO.N,Net-(U1-Pad8)*%
X116586000Y-96266000D03*
%TO.P,U1,9,9*%
%TO.N,CE*%
X116586000Y-98806000D03*
%TO.P,U1,10,10*%
%TO.N,CS*%
X116586000Y-101346000D03*
%TO.P,U1,11,11*%
%TO.N,MOSI*%
X116586000Y-103886000D03*
%TO.P,U1,12,12*%
%TO.N,MISO*%
X116586000Y-106426000D03*
%TO.P,U1,13,13*%
%TO.N,SCK*%
X131826000Y-106426000D03*
%TO.P,U1,14,14*%
%TO.N,AUTO*%
X131826000Y-103886000D03*
%TO.P,U1,15,15*%
%TO.N,MANUAL*%
X131826000Y-101346000D03*
%TO.P,U1,16,16*%
%TO.N,Net-(U1-Pad16)*%
X131826000Y-98806000D03*
%TO.P,U1,17,17*%
%TO.N,Net-(U1-Pad17)*%
X131826000Y-96266000D03*
%TO.P,U1,18,18*%
%TO.N,Net-(U1-Pad18)*%
X131826000Y-93726000D03*
%TO.P,U1,19,19*%
%TO.N,Net-(U1-Pad19)*%
X131826000Y-91186000D03*
%TO.P,U1,20,20*%
%TO.N,Net-(U1-Pad20)*%
X131826000Y-88646000D03*
%TO.P,U1,21,21*%
%TO.N,Net-(U1-Pad21)*%
X131826000Y-86106000D03*
%TO.P,U1,22,22*%
%TO.N,Net-(U1-Pad22)*%
X131826000Y-83566000D03*
%TO.P,U1,23,23*%
%TO.N,Net-(U1-Pad23)*%
X131826000Y-81026000D03*
%TO.P,U1,G1,G1*%
%TO.N,GND*%
X116586000Y-73406000D03*
%TO.P,U1,G2,G2*%
X124206000Y-106426000D03*
%TO.P,U1,G3,G3*%
X131826000Y-75946000D03*
%TO.P,U1,ON-OFF,ON/OFF*%
%TO.N,unconnected-(U1-PadON-OFF)*%
X129286000Y-106426000D03*
%TO.P,U1,PGM,PROGRAM*%
%TO.N,unconnected-(U1-PadPGM)*%
X126746000Y-106426000D03*
%TO.P,U1,VBAT,VBAT*%
%TO.N,unconnected-(U1-PadVBAT)*%
X119126000Y-106426000D03*
%TO.P,U1,VIN,VIN*%
%TO.N,VBUS*%
X131826000Y-73406000D03*
%TD*%
D14*
%TO.P,J9,1,Pin_1*%
%TO.N,Net-(A1-Pad3)*%
X145334000Y-80518000D03*
D15*
%TO.P,J9,2,Pin_2*%
%TO.N,Net-(A1-Pad4)*%
X145334000Y-83018000D03*
%TO.P,J9,3,Pin_3*%
%TO.N,Net-(A1-Pad5)*%
X145334000Y-85518000D03*
%TO.P,J9,4,Pin_4*%
%TO.N,Net-(A1-Pad6)*%
X145334000Y-88018000D03*
%TD*%
D10*
%TO.P,J8,1,Pin_1*%
%TO.N,3.3V*%
X170434000Y-72405000D03*
D11*
%TO.P,J8,2,Pin_2*%
%TO.N,MS3*%
X170434000Y-74945000D03*
%TO.P,J8,3,Pin_3*%
%TO.N,GND*%
X170434000Y-77485000D03*
%TD*%
%TO.P,J7,3,Pin_3*%
%TO.N,GND*%
X176276000Y-77470000D03*
%TO.P,J7,2,Pin_2*%
%TO.N,MS2*%
X176276000Y-74930000D03*
D10*
%TO.P,J7,1,Pin_1*%
%TO.N,3.3V*%
X176276000Y-72390000D03*
%TD*%
D11*
%TO.P,J6,3,Pin_3*%
%TO.N,GND*%
X181864000Y-77485000D03*
%TO.P,J6,2,Pin_2*%
%TO.N,MS1*%
X181864000Y-74945000D03*
D10*
%TO.P,J6,1,Pin_1*%
%TO.N,3.3V*%
X181864000Y-72405000D03*
%TD*%
D16*
%TO.P,J5,1*%
%TO.N,Net-(J5-Pad1)*%
X188976000Y-89974500D03*
D17*
%TO.P,J5,2*%
%TO.N,GND*%
X182976000Y-89974500D03*
D18*
%TO.P,J5,3*%
X185976000Y-94674500D03*
%TD*%
D10*
%TO.P,J4,1,Pin_1*%
%TO.N,3.3V*%
X143530000Y-75692000D03*
D11*
%TO.P,J4,2,Pin_2*%
%TO.N,GND*%
X146070000Y-75692000D03*
%TD*%
D10*
%TO.P,J3,1,Pin_1*%
%TO.N,SCK*%
X138405000Y-106416000D03*
D11*
%TO.P,J3,2,Pin_2*%
%TO.N,AUTO*%
X138405000Y-103876000D03*
%TO.P,J3,3,Pin_3*%
%TO.N,MANUAL*%
X138405000Y-101336000D03*
%TO.P,J3,4,Pin_4*%
%TO.N,Net-(U1-Pad16)*%
X138405000Y-98796000D03*
%TO.P,J3,5,Pin_5*%
%TO.N,Net-(U1-Pad17)*%
X138405000Y-96256000D03*
%TO.P,J3,6,Pin_6*%
%TO.N,Net-(U1-Pad18)*%
X138405000Y-93716000D03*
%TO.P,J3,7,Pin_7*%
%TO.N,Net-(U1-Pad19)*%
X138405000Y-91176000D03*
%TO.P,J3,8,Pin_8*%
%TO.N,Net-(U1-Pad20)*%
X138405000Y-88636000D03*
%TO.P,J3,9,Pin_9*%
%TO.N,Net-(U1-Pad21)*%
X138405000Y-86096000D03*
%TO.P,J3,10,Pin_10*%
%TO.N,Net-(U1-Pad22)*%
X138405000Y-83556000D03*
%TO.P,J3,11,Pin_11*%
%TO.N,Net-(U1-Pad23)*%
X138405000Y-81016000D03*
%TO.P,J3,12,Pin_12*%
%TO.N,3.3V*%
X138405000Y-78476000D03*
%TO.P,J3,13,Pin_13*%
%TO.N,GND*%
X138405000Y-75936000D03*
%TO.P,J3,14,Pin_14*%
%TO.N,VBUS*%
X138405000Y-73396000D03*
%TD*%
D10*
%TO.P,J2,1,Pin_1*%
%TO.N,MISO*%
X110465000Y-106416000D03*
D11*
%TO.P,J2,2,Pin_2*%
%TO.N,MOSI*%
X110465000Y-103876000D03*
%TO.P,J2,3,Pin_3*%
%TO.N,CS*%
X110465000Y-101336000D03*
%TO.P,J2,4,Pin_4*%
%TO.N,CE*%
X110465000Y-98796000D03*
%TO.P,J2,5,Pin_5*%
%TO.N,Net-(U1-Pad8)*%
X110465000Y-96256000D03*
%TO.P,J2,6,Pin_6*%
%TO.N,Net-(U1-Pad7)*%
X110465000Y-93716000D03*
%TO.P,J2,7,Pin_7*%
%TO.N,Net-(U1-Pad6)*%
X110465000Y-91176000D03*
%TO.P,J2,8,Pin_8*%
%TO.N,Net-(U1-Pad5)*%
X110465000Y-88636000D03*
%TO.P,J2,9,Pin_9*%
%TO.N,Net-(U1-Pad4)*%
X110465000Y-86096000D03*
%TO.P,J2,10,Pin_10*%
%TO.N,STEP*%
X110465000Y-83556000D03*
%TO.P,J2,11,Pin_11*%
%TO.N,DIR*%
X110465000Y-81016000D03*
%TO.P,J2,12,Pin_12*%
%TO.N,Net-(U1-Pad1)*%
X110465000Y-78476000D03*
%TO.P,J2,13,Pin_13*%
%TO.N,Net-(U1-Pad0)*%
X110465000Y-75936000D03*
%TO.P,J2,14,Pin_14*%
%TO.N,GND*%
X110465000Y-73396000D03*
%TD*%
%TO.P,J1,8,Pin_8*%
%TO.N,3.3V*%
X104877000Y-88377000D03*
%TO.P,J1,7,Pin_7*%
%TO.N,CE*%
X104877000Y-90917000D03*
%TO.P,J1,6,Pin_6*%
%TO.N,CS*%
X104877000Y-93457000D03*
%TO.P,J1,5,Pin_5*%
%TO.N,SCK*%
X104877000Y-95997000D03*
%TO.P,J1,4,Pin_4*%
%TO.N,MOSI*%
X104877000Y-98537000D03*
%TO.P,J1,3,Pin_3*%
%TO.N,MISO*%
X104877000Y-101077000D03*
%TO.P,J1,2,Pin_2*%
%TO.N,unconnected-(J1-Pad2)*%
X104877000Y-103617000D03*
D10*
%TO.P,J1,1,Pin_1*%
%TO.N,GND*%
X104877000Y-106157000D03*
%TD*%
D19*
%TO.P,D3,1,K*%
%TO.N,GND*%
X164592000Y-102108000D03*
D20*
%TO.P,D3,2,A*%
%TO.N,Net-(D3-Pad2)*%
X164592000Y-104648000D03*
%TD*%
D19*
%TO.P,D2,1,K*%
%TO.N,Net-(D2-Pad1)*%
X181356000Y-102108000D03*
D20*
%TO.P,D2,2,A*%
%TO.N,AUTO*%
X181356000Y-104648000D03*
%TD*%
D19*
%TO.P,D1,1,K*%
%TO.N,Net-(D1-Pad1)*%
X172720000Y-102113000D03*
D20*
%TO.P,D1,2,A*%
%TO.N,MANUAL*%
X172720000Y-104653000D03*
%TD*%
D21*
%TO.P,A1,1,GND*%
%TO.N,GND*%
X152156000Y-75438000D03*
D22*
%TO.P,A1,2,VDD*%
%TO.N,3.3V*%
X152156000Y-77978000D03*
%TO.P,A1,3,1B*%
%TO.N,Net-(A1-Pad3)*%
X152156000Y-80518000D03*
%TO.P,A1,4,1A*%
%TO.N,Net-(A1-Pad4)*%
X152156000Y-83058000D03*
%TO.P,A1,5,2A*%
%TO.N,Net-(A1-Pad5)*%
X152156000Y-85598000D03*
%TO.P,A1,6,2B*%
%TO.N,Net-(A1-Pad6)*%
X152156000Y-88138000D03*
%TO.P,A1,7,GND*%
%TO.N,GND*%
X152156000Y-90678000D03*
%TO.P,A1,8,VMOT*%
%TO.N,VMOT*%
X152156000Y-93218000D03*
%TO.P,A1,9,~{ENABLE}*%
%TO.N,unconnected-(A1-Pad9)*%
X164856000Y-93218000D03*
%TO.P,A1,10,MS1*%
%TO.N,MS1*%
X164856000Y-90678000D03*
%TO.P,A1,11,MS2*%
%TO.N,MS2*%
X164856000Y-88138000D03*
%TO.P,A1,12,MS3*%
%TO.N,MS3*%
X164856000Y-85598000D03*
%TO.P,A1,13,~{RESET}*%
%TO.N,Net-(A1-Pad13)*%
X164856000Y-83058000D03*
%TO.P,A1,14,~{SLEEP}*%
X164856000Y-80518000D03*
%TO.P,A1,15,STEP*%
%TO.N,STEP*%
X164856000Y-77978000D03*
%TO.P,A1,16,DIR*%
%TO.N,DIR*%
X164856000Y-75438000D03*
%TD*%
D23*
%TO.N,GND*%
X110490000Y-70612000D03*
X120650000Y-67564000D03*
%TO.N,MS1*%
X179070000Y-74930000D03*
%TO.N,MS2*%
X173482000Y-74930000D03*
%TO.N,MS1*%
X167640000Y-90678000D03*
%TO.N,MS2*%
X167640000Y-88138000D03*
%TO.N,+5V*%
X155194000Y-98806000D03*
X148590000Y-72644000D03*
%TO.N,STEP*%
X162052000Y-77978000D03*
%TO.N,DIR*%
X162052000Y-75438000D03*
%TO.N,STEP*%
X119126000Y-83566000D03*
%TO.N,DIR*%
X119126000Y-81026000D03*
%TD*%
D24*
%TO.N,MS1*%
X173736000Y-80010000D02*
X177546000Y-80010000D01*
X171196000Y-82550000D02*
X173736000Y-80010000D01*
X179070000Y-78486000D02*
X179070000Y-74930000D01*
X171196000Y-87630000D02*
X171196000Y-82550000D01*
X177546000Y-80010000D02*
X179070000Y-78486000D01*
X168148000Y-90678000D02*
X171196000Y-87630000D01*
X167640000Y-90678000D02*
X168148000Y-90678000D01*
%TO.N,MS2*%
X173482000Y-77724000D02*
X173482000Y-74930000D01*
X169672000Y-81534000D02*
X173482000Y-77724000D01*
X169672000Y-86106000D02*
X169672000Y-81534000D01*
X167640000Y-88138000D02*
X169672000Y-86106000D01*
%TO.N,GND*%
X124206000Y-100076000D02*
X124206000Y-106426000D01*
X129032000Y-95250000D02*
X124206000Y-100076000D01*
X129032000Y-77216000D02*
X129032000Y-95250000D01*
X130302000Y-75946000D02*
X129032000Y-77216000D01*
X131826000Y-75946000D02*
X130302000Y-75946000D01*
X113538000Y-67564000D02*
X110490000Y-70612000D01*
X120650000Y-67564000D02*
X113538000Y-67564000D01*
%TO.N,DIR*%
X158750000Y-75438000D02*
X162052000Y-75438000D01*
X157226000Y-73914000D02*
X158750000Y-75438000D01*
X121412000Y-69088000D02*
X154178000Y-69088000D01*
X154178000Y-69088000D02*
X157226000Y-72136000D01*
X119126000Y-71374000D02*
X121412000Y-69088000D01*
X157226000Y-72136000D02*
X157226000Y-73914000D01*
X119126000Y-81026000D02*
X119126000Y-71374000D01*
%TO.N,STEP*%
X120396000Y-83566000D02*
X119126000Y-83566000D01*
X153670000Y-70612000D02*
X122682000Y-70612000D01*
X121412000Y-82550000D02*
X120396000Y-83566000D01*
X155702000Y-72644000D02*
X153670000Y-70612000D01*
X155702000Y-76708000D02*
X155702000Y-72644000D01*
X156972000Y-77978000D02*
X155702000Y-76708000D01*
X162052000Y-77978000D02*
X156972000Y-77978000D01*
X122682000Y-70612000D02*
X121412000Y-71882000D01*
X121412000Y-71882000D02*
X121412000Y-82550000D01*
%TO.N,+5V*%
X154432000Y-98044000D02*
X155194000Y-98806000D01*
X154432000Y-74168000D02*
X154432000Y-98044000D01*
X152908000Y-72644000D02*
X154432000Y-74168000D01*
X148590000Y-72644000D02*
X152908000Y-72644000D01*
%TD*%
M02*
