  0
SECTION
  2
HEADER
  9
$ANGBASE
  50
0.0
  9
$ANGDIR
  70
1
  9
$MEASUREMENT
  70
0
  0
ENDSEC
  0
SECTION
  2
TABLES
  0
TABLE
  2
LTYPE
  70
4
  0
LTYPE
  5
40F
  2
CONTINUOUS
  70
0
  3
Solid line
  72
65
  73
0
  40
0.0
  0
LTYPE
  5
410
  2
DASHDOT
 70
0
  3
Dash Dot ____ _ ____ _
 72
65
 73
4
 40
2.0
 49
1.25
 49
-0.25
 49
0.25
 49
-0.25
  0
LTYPE
  5
411
  2
DASHED
 70
0
  3
Dashed __ __ __ __ __
 72
65
 73
2
 40
0.75
 49
0.5
 49
-0.25
  0
LTYPE
  5
43B
  2
DOTTED
 70
0
  3
Dotted .  .  .  .
 72
65
 73
2
 40
0.2
 49
0.0
 49
-0.2
  0
ENDTAB
  0
TABLE
  2
STYLE
  70
4
  0
STYLE
  2
KICAD
  70
0
  40
0
  41
1
  42
1
  50
0
  71
0
  3
isocp.shx
  0
STYLE
  2
KICADB
  70
0
  40
0
  41
1
  42
1
  50
0
  71
0
  3
isocp.shx
  0
STYLE
  2
KICADI
  70
0
  40
0
  41
1
  42
1
  50
15
  71
0
  3
isocp.shx
  0
STYLE
  2
KICADBI
  70
0
  40
0
  41
1
  42
1
  50
15
  71
0
  3
isocp.shx
  0
ENDTAB
  0
TABLE
  2
LAYER
  70
1
  0
LAYER
  2
BLACK
  70
0
  62
7
  6
CONTINUOUS
  0
ENDTAB
  0
ENDSEC
  0
SECTION
  2
ENTITIES
0
LINE
8
BLACK
6
CONTINUOUS
10
5.90535
20
-4.20008
11
5.82661
21
-4.20008
0
LINE
8
BLACK
6
CONTINUOUS
10
5.82661
20
-4.20008
11
5.82661
21
-4.14102
0
LINE
8
BLACK
6
CONTINUOUS
10
5.82661
20
-4.14102
11
5.90535
21
-4.14102
0
LINE
8
BLACK
6
CONTINUOUS
10
5.90535
20
-4.14102
11
5.90535
21
-4.20008
0
LINE
8
BLACK
6
CONTINUOUS
10
6.15339
20
-4.1548
11
6.07465
21
-4.1548
0
LINE
8
BLACK
6
CONTINUOUS
10
6.07465
20
-4.1548
11
6.07465
21
-4.0052
0
LINE
8
BLACK
6
CONTINUOUS
10
6.07465
20
-4.0052
11
6.15339
21
-4.0052
0
LINE
8
BLACK
6
CONTINUOUS
10
6.15339
20
-4.0052
11
6.15339
21
-4.1548
0
LINE
8
BLACK
6
CONTINUOUS
10
5.90535
20
-4.10953
11
5.82661
21
-4.10953
0
LINE
8
BLACK
6
CONTINUOUS
10
5.82661
20
-4.10953
11
5.82661
21
-4.05047
0
LINE
8
BLACK
6
CONTINUOUS
10
5.82661
20
-4.05047
11
5.90535
21
-4.05047
0
LINE
8
BLACK
6
CONTINUOUS
10
5.90535
20
-4.05047
11
5.90535
21
-4.10953
0
LINE
8
BLACK
6
CONTINUOUS
10
5.7779
20
-4.05221
11
5.78109
21
-4.05434
0
LINE
8
BLACK
6
CONTINUOUS
10
5.78109
20
-4.05434
11
5.78323
21
-4.05753
0
LINE
8
BLACK
6
CONTINUOUS
10
5.78323
20
-4.05753
11
5.78398
21
-4.0613
0
LINE
8
BLACK
6
CONTINUOUS
10
5.78398
20
-4.0613
11
5.78398
21
-4.0987
0
LINE
8
BLACK
6
CONTINUOUS
10
5.78398
20
-4.0987
11
5.78323
21
-4.10247
0
LINE
8
BLACK
6
CONTINUOUS
10
5.78323
20
-4.10247
11
5.78109
21
-4.10566
0
LINE
8
BLACK
6
CONTINUOUS
10
5.78109
20
-4.10566
11
5.7779
21
-4.10779
0
LINE
8
BLACK
6
CONTINUOUS
10
5.7779
20
-4.10779
11
5.77413
21
-4.10854
0
LINE
8
BLACK
6
CONTINUOUS
10
5.77413
20
-4.10854
11
5.74756
21
-4.10854
0
LINE
8
BLACK
6
CONTINUOUS
10
5.74756
20
-4.10854
11
5.74379
21
-4.10779
0
LINE
8
BLACK
6
CONTINUOUS
10
5.74379
20
-4.10779
11
5.7406
21
-4.10566
0
LINE
8
BLACK
6
CONTINUOUS
10
5.7406
20
-4.10566
11
5.73847
21
-4.10247
0
LINE
8
BLACK
6
CONTINUOUS
10
5.73847
20
-4.10247
11
5.73772
21
-4.0987
0
LINE
8
BLACK
6
CONTINUOUS
10
5.73772
20
-4.0987
11
5.73772
21
-4.0613
0
LINE
8
BLACK
6
CONTINUOUS
10
5.73772
20
-4.0613
11
5.73847
21
-4.05753
0
LINE
8
BLACK
6
CONTINUOUS
10
5.73847
20
-4.05753
11
5.7406
21
-4.05434
0
LINE
8
BLACK
6
CONTINUOUS
10
5.7406
20
-4.05434
11
5.74379
21
-4.05221
0
LINE
8
BLACK
6
CONTINUOUS
10
5.74379
20
-4.05221
11
5.74756
21
-4.05146
0
LINE
8
BLACK
6
CONTINUOUS
10
5.74756
20
-4.05146
11
5.77413
21
-4.05146
0
LINE
8
BLACK
6
CONTINUOUS
10
5.77413
20
-4.05146
11
5.7779
21
-4.05221
0
LINE
8
BLACK
6
CONTINUOUS
10
5.69621
20
-4.05221
11
5.6994
21
-4.05434
0
LINE
8
BLACK
6
CONTINUOUS
10
5.6994
20
-4.05434
11
5.70153
21
-4.05753
0
LINE
8
BLACK
6
CONTINUOUS
10
5.70153
20
-4.05753
11
5.70228
21
-4.0613
0
LINE
8
BLACK
6
CONTINUOUS
10
5.70228
20
-4.0613
11
5.70228
21
-4.0987
0
LINE
8
BLACK
6
CONTINUOUS
10
5.70228
20
-4.0987
11
5.70153
21
-4.10247
0
LINE
8
BLACK
6
CONTINUOUS
10
5.70153
20
-4.10247
11
5.6994
21
-4.10566
0
LINE
8
BLACK
6
CONTINUOUS
10
5.6994
20
-4.10566
11
5.69621
21
-4.10779
0
LINE
8
BLACK
6
CONTINUOUS
10
5.69621
20
-4.10779
11
5.69244
21
-4.10854
0
LINE
8
BLACK
6
CONTINUOUS
10
5.69244
20
-4.10854
11
5.66587
21
-4.10854
0
LINE
8
BLACK
6
CONTINUOUS
10
5.66587
20
-4.10854
11
5.6621
21
-4.10779
0
LINE
8
BLACK
6
CONTINUOUS
10
5.6621
20
-4.10779
11
5.65891
21
-4.10566
0
LINE
8
BLACK
6
CONTINUOUS
10
5.65891
20
-4.10566
11
5.65677
21
-4.10247
0
LINE
8
BLACK
6
CONTINUOUS
10
5.65677
20
-4.10247
11
5.65602
21
-4.0987
0
LINE
8
BLACK
6
CONTINUOUS
10
5.65602
20
-4.0987
11
5.65602
21
-4.0613
0
LINE
8
BLACK
6
CONTINUOUS
10
5.65602
20
-4.0613
11
5.65677
21
-4.05753
0
LINE
8
BLACK
6
CONTINUOUS
10
5.65677
20
-4.05753
11
5.65891
21
-4.05434
0
LINE
8
BLACK
6
CONTINUOUS
10
5.65891
20
-4.05434
11
5.6621
21
-4.05221
0
LINE
8
BLACK
6
CONTINUOUS
10
5.6621
20
-4.05221
11
5.66587
21
-4.05146
0
LINE
8
BLACK
6
CONTINUOUS
10
5.66587
20
-4.05146
11
5.69244
21
-4.05146
0
LINE
8
BLACK
6
CONTINUOUS
10
5.69244
20
-4.05146
11
5.69621
21
-4.05221
0
LINE
8
BLACK
6
CONTINUOUS
10
6.28237
20
-4.0265
11
6.28556
21
-4.02863
0
LINE
8
BLACK
6
CONTINUOUS
10
6.28556
20
-4.02863
11
6.28769
21
-4.03182
0
LINE
8
BLACK
6
CONTINUOUS
10
6.28769
20
-4.03182
11
6.28844
21
-4.03559
0
LINE
8
BLACK
6
CONTINUOUS
10
6.28844
20
-4.03559
11
6.28844
21
-4.06315
0
LINE
8
BLACK
6
CONTINUOUS
10
6.28844
20
-4.06315
11
6.28769
21
-4.06692
0
LINE
8
BLACK
6
CONTINUOUS
10
6.28769
20
-4.06692
11
6.28556
21
-4.07011
0
LINE
8
BLACK
6
CONTINUOUS
10
6.28556
20
-4.07011
11
6.28237
21
-4.07224
0
LINE
8
BLACK
6
CONTINUOUS
10
6.28237
20
-4.07224
11
6.2786
21
-4.07299
0
LINE
8
BLACK
6
CONTINUOUS
10
6.2786
20
-4.07299
11
6.24317
21
-4.07299
0
LINE
8
BLACK
6
CONTINUOUS
10
6.24317
20
-4.07299
11
6.2394
21
-4.07224
0
LINE
8
BLACK
6
CONTINUOUS
10
6.2394
20
-4.07224
11
6.23621
21
-4.07011
0
LINE
8
BLACK
6
CONTINUOUS
10
6.23621
20
-4.07011
11
6.23407
21
-4.06692
0
LINE
8
BLACK
6
CONTINUOUS
10
6.23407
20
-4.06692
11
6.23332
21
-4.06315
0
LINE
8
BLACK
6
CONTINUOUS
10
6.23332
20
-4.06315
11
6.23332
21
-4.03559
0
LINE
8
BLACK
6
CONTINUOUS
10
6.23332
20
-4.03559
11
6.23407
21
-4.03182
0
LINE
8
BLACK
6
CONTINUOUS
10
6.23407
20
-4.03182
11
6.23621
21
-4.02863
0
LINE
8
BLACK
6
CONTINUOUS
10
6.23621
20
-4.02863
11
6.2394
21
-4.0265
0
LINE
8
BLACK
6
CONTINUOUS
10
6.2394
20
-4.0265
11
6.24317
21
-4.02575
0
LINE
8
BLACK
6
CONTINUOUS
10
6.24317
20
-4.02575
11
6.2786
21
-4.02575
0
LINE
8
BLACK
6
CONTINUOUS
10
6.2786
20
-4.02575
11
6.28237
21
-4.0265
0
LINE
8
BLACK
6
CONTINUOUS
10
5.90535
20
-4.01898
11
5.82661
21
-4.01898
0
LINE
8
BLACK
6
CONTINUOUS
10
5.82661
20
-4.01898
11
5.82661
21
-3.95992
0
LINE
8
BLACK
6
CONTINUOUS
10
5.82661
20
-3.95992
11
5.90535
21
-3.95992
0
LINE
8
BLACK
6
CONTINUOUS
10
5.90535
20
-3.95992
11
5.90535
21
-4.01898
0
LINE
8
BLACK
6
CONTINUOUS
10
5.7779
20
-3.96221
11
5.78109
21
-3.96434
0
LINE
8
BLACK
6
CONTINUOUS
10
5.78109
20
-3.96434
11
5.78323
21
-3.96753
0
LINE
8
BLACK
6
CONTINUOUS
10
5.78323
20
-3.96753
11
5.78398
21
-3.9713
0
LINE
8
BLACK
6
CONTINUOUS
10
5.78398
20
-3.9713
11
5.78398
21
-4.0087
0
LINE
8
BLACK
6
CONTINUOUS
10
5.78398
20
-4.0087
11
5.78323
21
-4.01247
0
LINE
8
BLACK
6
CONTINUOUS
10
5.78323
20
-4.01247
11
5.78109
21
-4.01566
0
LINE
8
BLACK
6
CONTINUOUS
10
5.78109
20
-4.01566
11
5.7779
21
-4.01779
0
LINE
8
BLACK
6
CONTINUOUS
10
5.7779
20
-4.01779
11
5.77413
21
-4.01854
0
LINE
8
BLACK
6
CONTINUOUS
10
5.77413
20
-4.01854
11
5.74756
21
-4.01854
0
LINE
8
BLACK
6
CONTINUOUS
10
5.74756
20
-4.01854
11
5.74379
21
-4.01779
0
LINE
8
BLACK
6
CONTINUOUS
10
5.74379
20
-4.01779
11
5.7406
21
-4.01566
0
LINE
8
BLACK
6
CONTINUOUS
10
5.7406
20
-4.01566
11
5.73847
21
-4.01247
0
LINE
8
BLACK
6
CONTINUOUS
10
5.73847
20
-4.01247
11
5.73772
21
-4.0087
0
LINE
8
BLACK
6
CONTINUOUS
10
5.73772
20
-4.0087
11
5.73772
21
-3.9713
0
LINE
8
BLACK
6
CONTINUOUS
10
5.73772
20
-3.9713
11
5.73847
21
-3.96753
0
LINE
8
BLACK
6
CONTINUOUS
10
5.73847
20
-3.96753
11
5.7406
21
-3.96434
0
LINE
8
BLACK
6
CONTINUOUS
10
5.7406
20
-3.96434
11
5.74379
21
-3.96221
0
LINE
8
BLACK
6
CONTINUOUS
10
5.74379
20
-3.96221
11
5.74756
21
-3.96146
0
LINE
8
BLACK
6
CONTINUOUS
10
5.74756
20
-3.96146
11
5.77413
21
-3.96146
0
LINE
8
BLACK
6
CONTINUOUS
10
5.77413
20
-3.96146
11
5.7779
21
-3.96221
0
LINE
8
BLACK
6
CONTINUOUS
10
5.69621
20
-3.96221
11
5.6994
21
-3.96434
0
LINE
8
BLACK
6
CONTINUOUS
10
5.6994
20
-3.96434
11
5.70153
21
-3.96753
0
LINE
8
BLACK
6
CONTINUOUS
10
5.70153
20
-3.96753
11
5.70228
21
-3.9713
0
LINE
8
BLACK
6
CONTINUOUS
10
5.70228
20
-3.9713
11
5.70228
21
-4.0087
0
LINE
8
BLACK
6
CONTINUOUS
10
5.70228
20
-4.0087
11
5.70153
21
-4.01247
0
LINE
8
BLACK
6
CONTINUOUS
10
5.70153
20
-4.01247
11
5.6994
21
-4.01566
0
LINE
8
BLACK
6
CONTINUOUS
10
5.6994
20
-4.01566
11
5.69621
21
-4.01779
0
LINE
8
BLACK
6
CONTINUOUS
10
5.69621
20
-4.01779
11
5.69244
21
-4.01854
0
LINE
8
BLACK
6
CONTINUOUS
10
5.69244
20
-4.01854
11
5.66587
21
-4.01854
0
LINE
8
BLACK
6
CONTINUOUS
10
5.66587
20
-4.01854
11
5.6621
21
-4.01779
0
LINE
8
BLACK
6
CONTINUOUS
10
5.6621
20
-4.01779
11
5.65891
21
-4.01566
0
LINE
8
BLACK
6
CONTINUOUS
10
5.65891
20
-4.01566
11
5.65677
21
-4.01247
0
LINE
8
BLACK
6
CONTINUOUS
10
5.65677
20
-4.01247
11
5.65602
21
-4.0087
0
LINE
8
BLACK
6
CONTINUOUS
10
5.65602
20
-4.0087
11
5.65602
21
-3.9713
0
LINE
8
BLACK
6
CONTINUOUS
10
5.65602
20
-3.9713
11
5.65677
21
-3.96753
0
LINE
8
BLACK
6
CONTINUOUS
10
5.65677
20
-3.96753
11
5.65891
21
-3.96434
0
LINE
8
BLACK
6
CONTINUOUS
10
5.65891
20
-3.96434
11
5.6621
21
-3.96221
0
LINE
8
BLACK
6
CONTINUOUS
10
5.6621
20
-3.96221
11
5.66587
21
-3.96146
0
LINE
8
BLACK
6
CONTINUOUS
10
5.66587
20
-3.96146
11
5.69244
21
-3.96146
0
LINE
8
BLACK
6
CONTINUOUS
10
5.69244
20
-3.96146
11
5.69621
21
-3.96221
0
LINE
8
BLACK
6
CONTINUOUS
10
6.28237
20
-3.94776
11
6.28556
21
-3.94989
0
LINE
8
BLACK
6
CONTINUOUS
10
6.28556
20
-3.94989
11
6.28769
21
-3.95308
0
LINE
8
BLACK
6
CONTINUOUS
10
6.28769
20
-3.95308
11
6.28844
21
-3.95685
0
LINE
8
BLACK
6
CONTINUOUS
10
6.28844
20
-3.95685
11
6.28844
21
-3.98441
0
LINE
8
BLACK
6
CONTINUOUS
10
6.28844
20
-3.98441
11
6.28769
21
-3.98818
0
LINE
8
BLACK
6
CONTINUOUS
10
6.28769
20
-3.98818
11
6.28556
21
-3.99137
0
LINE
8
BLACK
6
CONTINUOUS
10
6.28556
20
-3.99137
11
6.28237
21
-3.9935
0
LINE
8
BLACK
6
CONTINUOUS
10
6.28237
20
-3.9935
11
6.2786
21
-3.99425
0
LINE
8
BLACK
6
CONTINUOUS
10
6.2786
20
-3.99425
11
6.24317
21
-3.99425
0
LINE
8
BLACK
6
CONTINUOUS
10
6.24317
20
-3.99425
11
6.2394
21
-3.9935
0
LINE
8
BLACK
6
CONTINUOUS
10
6.2394
20
-3.9935
11
6.23621
21
-3.99137
0
LINE
8
BLACK
6
CONTINUOUS
10
6.23621
20
-3.99137
11
6.23407
21
-3.98818
0
LINE
8
BLACK
6
CONTINUOUS
10
6.23407
20
-3.98818
11
6.23332
21
-3.98441
0
LINE
8
BLACK
6
CONTINUOUS
10
6.23332
20
-3.98441
11
6.23332
21
-3.95685
0
LINE
8
BLACK
6
CONTINUOUS
10
6.23332
20
-3.95685
11
6.23407
21
-3.95308
0
LINE
8
BLACK
6
CONTINUOUS
10
6.23407
20
-3.95308
11
6.23621
21
-3.94989
0
LINE
8
BLACK
6
CONTINUOUS
10
6.23621
20
-3.94989
11
6.2394
21
-3.94776
0
LINE
8
BLACK
6
CONTINUOUS
10
6.2394
20
-3.94776
11
6.24317
21
-3.94701
0
LINE
8
BLACK
6
CONTINUOUS
10
6.24317
20
-3.94701
11
6.2786
21
-3.94701
0
LINE
8
BLACK
6
CONTINUOUS
10
6.2786
20
-3.94701
11
6.28237
21
-3.94776
0
LINE
8
BLACK
6
CONTINUOUS
10
6.77818
20
-3.87319
11
6.78137
21
-3.87532
0
LINE
8
BLACK
6
CONTINUOUS
10
6.78137
20
-3.87532
11
6.7835
21
-3.87852
0
LINE
8
BLACK
6
CONTINUOUS
10
6.7835
20
-3.87852
11
6.78425
21
-3.88228
0
LINE
8
BLACK
6
CONTINUOUS
10
6.78425
20
-3.88228
11
6.78425
21
-3.91772
0
LINE
8
BLACK
6
CONTINUOUS
10
6.78425
20
-3.91772
11
6.7835
21
-3.92148
0
LINE
8
BLACK
6
CONTINUOUS
10
6.7835
20
-3.92148
11
6.78137
21
-3.92468
0
LINE
8
BLACK
6
CONTINUOUS
10
6.78137
20
-3.92468
11
6.77818
21
-3.92681
0
LINE
8
BLACK
6
CONTINUOUS
10
6.77818
20
-3.92681
11
6.77441
21
-3.92756
0
LINE
8
BLACK
6
CONTINUOUS
10
6.77441
20
-3.92756
11
6.74685
21
-3.92756
0
LINE
8
BLACK
6
CONTINUOUS
10
6.74685
20
-3.92756
11
6.74308
21
-3.92681
0
LINE
8
BLACK
6
CONTINUOUS
10
6.74308
20
-3.92681
11
6.73989
21
-3.92468
0
LINE
8
BLACK
6
CONTINUOUS
10
6.73989
20
-3.92468
11
6.73776
21
-3.92148
0
LINE
8
BLACK
6
CONTINUOUS
10
6.73776
20
-3.92148
11
6.73701
21
-3.91772
0
LINE
8
BLACK
6
CONTINUOUS
10
6.73701
20
-3.91772
11
6.73701
21
-3.88228
0
LINE
8
BLACK
6
CONTINUOUS
10
6.73701
20
-3.88228
11
6.73776
21
-3.87852
0
LINE
8
BLACK
6
CONTINUOUS
10
6.73776
20
-3.87852
11
6.73989
21
-3.87532
0
LINE
8
BLACK
6
CONTINUOUS
10
6.73989
20
-3.87532
11
6.74308
21
-3.87319
0
LINE
8
BLACK
6
CONTINUOUS
10
6.74308
20
-3.87319
11
6.74685
21
-3.87244
0
LINE
8
BLACK
6
CONTINUOUS
10
6.74685
20
-3.87244
11
6.77441
21
-3.87244
0
LINE
8
BLACK
6
CONTINUOUS
10
6.77441
20
-3.87244
11
6.77818
21
-3.87319
0
LINE
8
BLACK
6
CONTINUOUS
10
6.85692
20
-3.87319
11
6.86011
21
-3.87532
0
LINE
8
BLACK
6
CONTINUOUS
10
6.86011
20
-3.87532
11
6.86224
21
-3.87852
0
LINE
8
BLACK
6
CONTINUOUS
10
6.86224
20
-3.87852
11
6.86299
21
-3.88228
0
LINE
8
BLACK
6
CONTINUOUS
10
6.86299
20
-3.88228
11
6.86299
21
-3.91772
0
LINE
8
BLACK
6
CONTINUOUS
10
6.86299
20
-3.91772
11
6.86224
21
-3.92148
0
LINE
8
BLACK
6
CONTINUOUS
10
6.86224
20
-3.92148
11
6.86011
21
-3.92468
0
LINE
8
BLACK
6
CONTINUOUS
10
6.86011
20
-3.92468
11
6.85692
21
-3.92681
0
LINE
8
BLACK
6
CONTINUOUS
10
6.85692
20
-3.92681
11
6.85315
21
-3.92756
0
LINE
8
BLACK
6
CONTINUOUS
10
6.85315
20
-3.92756
11
6.82559
21
-3.92756
0
LINE
8
BLACK
6
CONTINUOUS
10
6.82559
20
-3.92756
11
6.82182
21
-3.92681
0
LINE
8
BLACK
6
CONTINUOUS
10
6.82182
20
-3.92681
11
6.81863
21
-3.92468
0
LINE
8
BLACK
6
CONTINUOUS
10
6.81863
20
-3.92468
11
6.8165
21
-3.92148
0
LINE
8
BLACK
6
CONTINUOUS
10
6.8165
20
-3.92148
11
6.81575
21
-3.91772
0
LINE
8
BLACK
6
CONTINUOUS
10
6.81575
20
-3.91772
11
6.81575
21
-3.88228
0
LINE
8
BLACK
6
CONTINUOUS
10
6.81575
20
-3.88228
11
6.8165
21
-3.87852
0
LINE
8
BLACK
6
CONTINUOUS
10
6.8165
20
-3.87852
11
6.81863
21
-3.87532
0
LINE
8
BLACK
6
CONTINUOUS
10
6.81863
20
-3.87532
11
6.82182
21
-3.87319
0
LINE
8
BLACK
6
CONTINUOUS
10
6.82182
20
-3.87319
11
6.82559
21
-3.87244
0
LINE
8
BLACK
6
CONTINUOUS
10
6.82559
20
-3.87244
11
6.85315
21
-3.87244
0
LINE
8
BLACK
6
CONTINUOUS
10
6.85315
20
-3.87244
11
6.85692
21
-3.87319
0
LINE
8
BLACK
6
CONTINUOUS
10
7.11818
20
-3.87299
11
7.12137
21
-3.87513
0
LINE
8
BLACK
6
CONTINUOUS
10
7.12137
20
-3.87513
11
7.1235
21
-3.87832
0
LINE
8
BLACK
6
CONTINUOUS
10
7.1235
20
-3.87832
11
7.12425
21
-3.88209
0
LINE
8
BLACK
6
CONTINUOUS
10
7.12425
20
-3.88209
11
7.12425
21
-3.91752
0
LINE
8
BLACK
6
CONTINUOUS
10
7.12425
20
-3.91752
11
7.1235
21
-3.92129
0
LINE
8
BLACK
6
CONTINUOUS
10
7.1235
20
-3.92129
11
7.12137
21
-3.92448
0
LINE
8
BLACK
6
CONTINUOUS
10
7.12137
20
-3.92448
11
7.11818
21
-3.92661
0
LINE
8
BLACK
6
CONTINUOUS
10
7.11818
20
-3.92661
11
7.11441
21
-3.92736
0
LINE
8
BLACK
6
CONTINUOUS
10
7.11441
20
-3.92736
11
7.08685
21
-3.92736
0
LINE
8
BLACK
6
CONTINUOUS
10
7.08685
20
-3.92736
11
7.08308
21
-3.92661
0
LINE
8
BLACK
6
CONTINUOUS
10
7.08308
20
-3.92661
11
7.07989
21
-3.92448
0
LINE
8
BLACK
6
CONTINUOUS
10
7.07989
20
-3.92448
11
7.07776
21
-3.92129
0
LINE
8
BLACK
6
CONTINUOUS
10
7.07776
20
-3.92129
11
7.07701
21
-3.91752
0
LINE
8
BLACK
6
CONTINUOUS
10
7.07701
20
-3.91752
11
7.07701
21
-3.88209
0
LINE
8
BLACK
6
CONTINUOUS
10
7.07701
20
-3.88209
11
7.07776
21
-3.87832
0
LINE
8
BLACK
6
CONTINUOUS
10
7.07776
20
-3.87832
11
7.07989
21
-3.87513
0
LINE
8
BLACK
6
CONTINUOUS
10
7.07989
20
-3.87513
11
7.08308
21
-3.87299
0
LINE
8
BLACK
6
CONTINUOUS
10
7.08308
20
-3.87299
11
7.08685
21
-3.87224
0
LINE
8
BLACK
6
CONTINUOUS
10
7.08685
20
-3.87224
11
7.11441
21
-3.87224
0
LINE
8
BLACK
6
CONTINUOUS
10
7.11441
20
-3.87224
11
7.11818
21
-3.87299
0
LINE
8
BLACK
6
CONTINUOUS
10
7.19692
20
-3.87299
11
7.20011
21
-3.87513
0
LINE
8
BLACK
6
CONTINUOUS
10
7.20011
20
-3.87513
11
7.20224
21
-3.87832
0
LINE
8
BLACK
6
CONTINUOUS
10
7.20224
20
-3.87832
11
7.20299
21
-3.88209
0
LINE
8
BLACK
6
CONTINUOUS
10
7.20299
20
-3.88209
11
7.20299
21
-3.91752
0
LINE
8
BLACK
6
CONTINUOUS
10
7.20299
20
-3.91752
11
7.20224
21
-3.92129
0
LINE
8
BLACK
6
CONTINUOUS
10
7.20224
20
-3.92129
11
7.20011
21
-3.92448
0
LINE
8
BLACK
6
CONTINUOUS
10
7.20011
20
-3.92448
11
7.19692
21
-3.92661
0
LINE
8
BLACK
6
CONTINUOUS
10
7.19692
20
-3.92661
11
7.19315
21
-3.92736
0
LINE
8
BLACK
6
CONTINUOUS
10
7.19315
20
-3.92736
11
7.16559
21
-3.92736
0
LINE
8
BLACK
6
CONTINUOUS
10
7.16559
20
-3.92736
11
7.16182
21
-3.92661
0
LINE
8
BLACK
6
CONTINUOUS
10
7.16182
20
-3.92661
11
7.15863
21
-3.92448
0
LINE
8
BLACK
6
CONTINUOUS
10
7.15863
20
-3.92448
11
7.1565
21
-3.92129
0
LINE
8
BLACK
6
CONTINUOUS
10
7.1565
20
-3.92129
11
7.15575
21
-3.91752
0
LINE
8
BLACK
6
CONTINUOUS
10
7.15575
20
-3.91752
11
7.15575
21
-3.88209
0
LINE
8
BLACK
6
CONTINUOUS
10
7.15575
20
-3.88209
11
7.1565
21
-3.87832
0
LINE
8
BLACK
6
CONTINUOUS
10
7.1565
20
-3.87832
11
7.15863
21
-3.87513
0
LINE
8
BLACK
6
CONTINUOUS
10
7.15863
20
-3.87513
11
7.16182
21
-3.87299
0
LINE
8
BLACK
6
CONTINUOUS
10
7.16182
20
-3.87299
11
7.16559
21
-3.87224
0
LINE
8
BLACK
6
CONTINUOUS
10
7.16559
20
-3.87224
11
7.19315
21
-3.87224
0
LINE
8
BLACK
6
CONTINUOUS
10
7.19315
20
-3.87224
11
7.19692
21
-3.87299
0
LINE
8
BLACK
6
CONTINUOUS
10
5.8679
20
-3.64221
11
5.87109
21
-3.64434
0
LINE
8
BLACK
6
CONTINUOUS
10
5.87109
20
-3.64434
11
5.87323
21
-3.64753
0
LINE
8
BLACK
6
CONTINUOUS
10
5.87323
20
-3.64753
11
5.87398
21
-3.6513
0
LINE
8
BLACK
6
CONTINUOUS
10
5.87398
20
-3.6513
11
5.87398
21
-3.6887
0
LINE
8
BLACK
6
CONTINUOUS
10
5.87398
20
-3.6887
11
5.87323
21
-3.69247
0
LINE
8
BLACK
6
CONTINUOUS
10
5.87323
20
-3.69247
11
5.87109
21
-3.69566
0
LINE
8
BLACK
6
CONTINUOUS
10
5.87109
20
-3.69566
11
5.8679
21
-3.69779
0
LINE
8
BLACK
6
CONTINUOUS
10
5.8679
20
-3.69779
11
5.86413
21
-3.69854
0
LINE
8
BLACK
6
CONTINUOUS
10
5.86413
20
-3.69854
11
5.83756
21
-3.69854
0
LINE
8
BLACK
6
CONTINUOUS
10
5.83756
20
-3.69854
11
5.83379
21
-3.69779
0
LINE
8
BLACK
6
CONTINUOUS
10
5.83379
20
-3.69779
11
5.8306
21
-3.69566
0
LINE
8
BLACK
6
CONTINUOUS
10
5.8306
20
-3.69566
11
5.82847
21
-3.69247
0
LINE
8
BLACK
6
CONTINUOUS
10
5.82847
20
-3.69247
11
5.82772
21
-3.6887
0
LINE
8
BLACK
6
CONTINUOUS
10
5.82772
20
-3.6887
11
5.82772
21
-3.6513
0
LINE
8
BLACK
6
CONTINUOUS
10
5.82772
20
-3.6513
11
5.82847
21
-3.64753
0
LINE
8
BLACK
6
CONTINUOUS
10
5.82847
20
-3.64753
11
5.8306
21
-3.64434
0
LINE
8
BLACK
6
CONTINUOUS
10
5.8306
20
-3.64434
11
5.83379
21
-3.64221
0
LINE
8
BLACK
6
CONTINUOUS
10
5.83379
20
-3.64221
11
5.83756
21
-3.64146
0
LINE
8
BLACK
6
CONTINUOUS
10
5.83756
20
-3.64146
11
5.86413
21
-3.64146
0
LINE
8
BLACK
6
CONTINUOUS
10
5.86413
20
-3.64146
11
5.8679
21
-3.64221
0
LINE
8
BLACK
6
CONTINUOUS
10
5.78621
20
-3.64221
11
5.7894
21
-3.64434
0
LINE
8
BLACK
6
CONTINUOUS
10
5.7894
20
-3.64434
11
5.79153
21
-3.64753
0
LINE
8
BLACK
6
CONTINUOUS
10
5.79153
20
-3.64753
11
5.79228
21
-3.6513
0
LINE
8
BLACK
6
CONTINUOUS
10
5.79228
20
-3.6513
11
5.79228
21
-3.6887
0
LINE
8
BLACK
6
CONTINUOUS
10
5.79228
20
-3.6887
11
5.79153
21
-3.69247
0
LINE
8
BLACK
6
CONTINUOUS
10
5.79153
20
-3.69247
11
5.7894
21
-3.69566
0
LINE
8
BLACK
6
CONTINUOUS
10
5.7894
20
-3.69566
11
5.78621
21
-3.69779
0
LINE
8
BLACK
6
CONTINUOUS
10
5.78621
20
-3.69779
11
5.78244
21
-3.69854
0
LINE
8
BLACK
6
CONTINUOUS
10
5.78244
20
-3.69854
11
5.75587
21
-3.69854
0
LINE
8
BLACK
6
CONTINUOUS
10
5.75587
20
-3.69854
11
5.7521
21
-3.69779
0
LINE
8
BLACK
6
CONTINUOUS
10
5.7521
20
-3.69779
11
5.74891
21
-3.69566
0
LINE
8
BLACK
6
CONTINUOUS
10
5.74891
20
-3.69566
11
5.74677
21
-3.69247
0
LINE
8
BLACK
6
CONTINUOUS
10
5.74677
20
-3.69247
11
5.74602
21
-3.6887
0
LINE
8
BLACK
6
CONTINUOUS
10
5.74602
20
-3.6887
11
5.74602
21
-3.6513
0
LINE
8
BLACK
6
CONTINUOUS
10
5.74602
20
-3.6513
11
5.74677
21
-3.64753
0
LINE
8
BLACK
6
CONTINUOUS
10
5.74677
20
-3.64753
11
5.74891
21
-3.64434
0
LINE
8
BLACK
6
CONTINUOUS
10
5.74891
20
-3.64434
11
5.7521
21
-3.64221
0
LINE
8
BLACK
6
CONTINUOUS
10
5.7521
20
-3.64221
11
5.75587
21
-3.64146
0
LINE
8
BLACK
6
CONTINUOUS
10
5.75587
20
-3.64146
11
5.78244
21
-3.64146
0
LINE
8
BLACK
6
CONTINUOUS
10
5.78244
20
-3.64146
11
5.78621
21
-3.64221
0
LINE
8
BLACK
6
CONTINUOUS
10
5.0479
20
-3.14221
11
5.05109
21
-3.14434
0
LINE
8
BLACK
6
CONTINUOUS
10
5.05109
20
-3.14434
11
5.05323
21
-3.14753
0
LINE
8
BLACK
6
CONTINUOUS
10
5.05323
20
-3.14753
11
5.05398
21
-3.1513
0
LINE
8
BLACK
6
CONTINUOUS
10
5.05398
20
-3.1513
11
5.05398
21
-3.1887
0
LINE
8
BLACK
6
CONTINUOUS
10
5.05398
20
-3.1887
11
5.05323
21
-3.19247
0
LINE
8
BLACK
6
CONTINUOUS
10
5.05323
20
-3.19247
11
5.05109
21
-3.19566
0
LINE
8
BLACK
6
CONTINUOUS
10
5.05109
20
-3.19566
11
5.0479
21
-3.19779
0
LINE
8
BLACK
6
CONTINUOUS
10
5.0479
20
-3.19779
11
5.04413
21
-3.19854
0
LINE
8
BLACK
6
CONTINUOUS
10
5.04413
20
-3.19854
11
5.01756
21
-3.19854
0
LINE
8
BLACK
6
CONTINUOUS
10
5.01756
20
-3.19854
11
5.01379
21
-3.19779
0
LINE
8
BLACK
6
CONTINUOUS
10
5.01379
20
-3.19779
11
5.0106
21
-3.19566
0
LINE
8
BLACK
6
CONTINUOUS
10
5.0106
20
-3.19566
11
5.00847
21
-3.19247
0
LINE
8
BLACK
6
CONTINUOUS
10
5.00847
20
-3.19247
11
5.00772
21
-3.1887
0
LINE
8
BLACK
6
CONTINUOUS
10
5.00772
20
-3.1887
11
5.00772
21
-3.1513
0
LINE
8
BLACK
6
CONTINUOUS
10
5.00772
20
-3.1513
11
5.00847
21
-3.14753
0
LINE
8
BLACK
6
CONTINUOUS
10
5.00847
20
-3.14753
11
5.0106
21
-3.14434
0
LINE
8
BLACK
6
CONTINUOUS
10
5.0106
20
-3.14434
11
5.01379
21
-3.14221
0
LINE
8
BLACK
6
CONTINUOUS
10
5.01379
20
-3.14221
11
5.01756
21
-3.14146
0
LINE
8
BLACK
6
CONTINUOUS
10
5.01756
20
-3.14146
11
5.04413
21
-3.14146
0
LINE
8
BLACK
6
CONTINUOUS
10
5.04413
20
-3.14146
11
5.0479
21
-3.14221
0
LINE
8
BLACK
6
CONTINUOUS
10
4.96621
20
-3.14221
11
4.9694
21
-3.14434
0
LINE
8
BLACK
6
CONTINUOUS
10
4.9694
20
-3.14434
11
4.97153
21
-3.14753
0
LINE
8
BLACK
6
CONTINUOUS
10
4.97153
20
-3.14753
11
4.97228
21
-3.1513
0
LINE
8
BLACK
6
CONTINUOUS
10
4.97228
20
-3.1513
11
4.97228
21
-3.1887
0
LINE
8
BLACK
6
CONTINUOUS
10
4.97228
20
-3.1887
11
4.97153
21
-3.19247
0
LINE
8
BLACK
6
CONTINUOUS
10
4.97153
20
-3.19247
11
4.9694
21
-3.19566
0
LINE
8
BLACK
6
CONTINUOUS
10
4.9694
20
-3.19566
11
4.96621
21
-3.19779
0
LINE
8
BLACK
6
CONTINUOUS
10
4.96621
20
-3.19779
11
4.96244
21
-3.19854
0
LINE
8
BLACK
6
CONTINUOUS
10
4.96244
20
-3.19854
11
4.93587
21
-3.19854
0
LINE
8
BLACK
6
CONTINUOUS
10
4.93587
20
-3.19854
11
4.9321
21
-3.19779
0
LINE
8
BLACK
6
CONTINUOUS
10
4.9321
20
-3.19779
11
4.92891
21
-3.19566
0
LINE
8
BLACK
6
CONTINUOUS
10
4.92891
20
-3.19566
11
4.92677
21
-3.19247
0
LINE
8
BLACK
6
CONTINUOUS
10
4.92677
20
-3.19247
11
4.92602
21
-3.1887
0
LINE
8
BLACK
6
CONTINUOUS
10
4.92602
20
-3.1887
11
4.92602
21
-3.1513
0
LINE
8
BLACK
6
CONTINUOUS
10
4.92602
20
-3.1513
11
4.92677
21
-3.14753
0
LINE
8
BLACK
6
CONTINUOUS
10
4.92677
20
-3.14753
11
4.92891
21
-3.14434
0
LINE
8
BLACK
6
CONTINUOUS
10
4.92891
20
-3.14434
11
4.9321
21
-3.14221
0
LINE
8
BLACK
6
CONTINUOUS
10
4.9321
20
-3.14221
11
4.93587
21
-3.14146
0
LINE
8
BLACK
6
CONTINUOUS
10
4.93587
20
-3.14146
11
4.96244
21
-3.14146
0
LINE
8
BLACK
6
CONTINUOUS
10
4.96244
20
-3.14146
11
4.96621
21
-3.14221
0
LINE
8
BLACK
6
CONTINUOUS
10
5.0479
20
-3.0611
11
5.05109
21
-3.06324
0
LINE
8
BLACK
6
CONTINUOUS
10
5.05109
20
-3.06324
11
5.05323
21
-3.06643
0
LINE
8
BLACK
6
CONTINUOUS
10
5.05323
20
-3.06643
11
5.05398
21
-3.0702
0
LINE
8
BLACK
6
CONTINUOUS
10
5.05398
20
-3.0702
11
5.05398
21
-3.1076
0
LINE
8
BLACK
6
CONTINUOUS
10
5.05398
20
-3.1076
11
5.05323
21
-3.11136
0
LINE
8
BLACK
6
CONTINUOUS
10
5.05323
20
-3.11136
11
5.05109
21
-3.11456
0
LINE
8
BLACK
6
CONTINUOUS
10
5.05109
20
-3.11456
11
5.0479
21
-3.11669
0
LINE
8
BLACK
6
CONTINUOUS
10
5.0479
20
-3.11669
11
5.04413
21
-3.11744
0
LINE
8
BLACK
6
CONTINUOUS
10
5.04413
20
-3.11744
11
5.01756
21
-3.11744
0
LINE
8
BLACK
6
CONTINUOUS
10
5.01756
20
-3.11744
11
5.01379
21
-3.11669
0
LINE
8
BLACK
6
CONTINUOUS
10
5.01379
20
-3.11669
11
5.0106
21
-3.11456
0
LINE
8
BLACK
6
CONTINUOUS
10
5.0106
20
-3.11456
11
5.00847
21
-3.11136
0
LINE
8
BLACK
6
CONTINUOUS
10
5.00847
20
-3.11136
11
5.00772
21
-3.1076
0
LINE
8
BLACK
6
CONTINUOUS
10
5.00772
20
-3.1076
11
5.00772
21
-3.0702
0
LINE
8
BLACK
6
CONTINUOUS
10
5.00772
20
-3.0702
11
5.00847
21
-3.06643
0
LINE
8
BLACK
6
CONTINUOUS
10
5.00847
20
-3.06643
11
5.0106
21
-3.06324
0
LINE
8
BLACK
6
CONTINUOUS
10
5.0106
20
-3.06324
11
5.01379
21
-3.0611
0
LINE
8
BLACK
6
CONTINUOUS
10
5.01379
20
-3.0611
11
5.01756
21
-3.06035
0
LINE
8
BLACK
6
CONTINUOUS
10
5.01756
20
-3.06035
11
5.04413
21
-3.06035
0
LINE
8
BLACK
6
CONTINUOUS
10
5.04413
20
-3.06035
11
5.0479
21
-3.0611
0
LINE
8
BLACK
6
CONTINUOUS
10
4.96621
20
-3.0611
11
4.9694
21
-3.06324
0
LINE
8
BLACK
6
CONTINUOUS
10
4.9694
20
-3.06324
11
4.97153
21
-3.06643
0
LINE
8
BLACK
6
CONTINUOUS
10
4.97153
20
-3.06643
11
4.97228
21
-3.0702
0
LINE
8
BLACK
6
CONTINUOUS
10
4.97228
20
-3.0702
11
4.97228
21
-3.1076
0
LINE
8
BLACK
6
CONTINUOUS
10
4.97228
20
-3.1076
11
4.97153
21
-3.11136
0
LINE
8
BLACK
6
CONTINUOUS
10
4.97153
20
-3.11136
11
4.9694
21
-3.11456
0
LINE
8
BLACK
6
CONTINUOUS
10
4.9694
20
-3.11456
11
4.96621
21
-3.11669
0
LINE
8
BLACK
6
CONTINUOUS
10
4.96621
20
-3.11669
11
4.96244
21
-3.11744
0
LINE
8
BLACK
6
CONTINUOUS
10
4.96244
20
-3.11744
11
4.93587
21
-3.11744
0
LINE
8
BLACK
6
CONTINUOUS
10
4.93587
20
-3.11744
11
4.9321
21
-3.11669
0
LINE
8
BLACK
6
CONTINUOUS
10
4.9321
20
-3.11669
11
4.92891
21
-3.11456
0
LINE
8
BLACK
6
CONTINUOUS
10
4.92891
20
-3.11456
11
4.92677
21
-3.11136
0
LINE
8
BLACK
6
CONTINUOUS
10
4.92677
20
-3.11136
11
4.92602
21
-3.1076
0
LINE
8
BLACK
6
CONTINUOUS
10
4.92602
20
-3.1076
11
4.92602
21
-3.0702
0
LINE
8
BLACK
6
CONTINUOUS
10
4.92602
20
-3.0702
11
4.92677
21
-3.06643
0
LINE
8
BLACK
6
CONTINUOUS
10
4.92677
20
-3.06643
11
4.92891
21
-3.06324
0
LINE
8
BLACK
6
CONTINUOUS
10
4.92891
20
-3.06324
11
4.9321
21
-3.0611
0
LINE
8
BLACK
6
CONTINUOUS
10
4.9321
20
-3.0611
11
4.93587
21
-3.06035
0
LINE
8
BLACK
6
CONTINUOUS
10
4.93587
20
-3.06035
11
4.96244
21
-3.06035
0
LINE
8
BLACK
6
CONTINUOUS
10
4.96244
20
-3.06035
11
4.96621
21
-3.0611
0
LINE
8
BLACK
6
CONTINUOUS
10
5.0479
20
-2.94221
11
5.05109
21
-2.94434
0
LINE
8
BLACK
6
CONTINUOUS
10
5.05109
20
-2.94434
11
5.05323
21
-2.94753
0
LINE
8
BLACK
6
CONTINUOUS
10
5.05323
20
-2.94753
11
5.05398
21
-2.9513
0
LINE
8
BLACK
6
CONTINUOUS
10
5.05398
20
-2.9513
11
5.05398
21
-2.9887
0
LINE
8
BLACK
6
CONTINUOUS
10
5.05398
20
-2.9887
11
5.05323
21
-2.99247
0
LINE
8
BLACK
6
CONTINUOUS
10
5.05323
20
-2.99247
11
5.05109
21
-2.99566
0
LINE
8
BLACK
6
CONTINUOUS
10
5.05109
20
-2.99566
11
5.0479
21
-2.99779
0
LINE
8
BLACK
6
CONTINUOUS
10
5.0479
20
-2.99779
11
5.04413
21
-2.99854
0
LINE
8
BLACK
6
CONTINUOUS
10
5.04413
20
-2.99854
11
5.01756
21
-2.99854
0
LINE
8
BLACK
6
CONTINUOUS
10
5.01756
20
-2.99854
11
5.01379
21
-2.99779
0
LINE
8
BLACK
6
CONTINUOUS
10
5.01379
20
-2.99779
11
5.0106
21
-2.99566
0
LINE
8
BLACK
6
CONTINUOUS
10
5.0106
20
-2.99566
11
5.00847
21
-2.99247
0
LINE
8
BLACK
6
CONTINUOUS
10
5.00847
20
-2.99247
11
5.00772
21
-2.9887
0
LINE
8
BLACK
6
CONTINUOUS
10
5.00772
20
-2.9887
11
5.00772
21
-2.9513
0
LINE
8
BLACK
6
CONTINUOUS
10
5.00772
20
-2.9513
11
5.00847
21
-2.94753
0
LINE
8
BLACK
6
CONTINUOUS
10
5.00847
20
-2.94753
11
5.0106
21
-2.94434
0
LINE
8
BLACK
6
CONTINUOUS
10
5.0106
20
-2.94434
11
5.01379
21
-2.94221
0
LINE
8
BLACK
6
CONTINUOUS
10
5.01379
20
-2.94221
11
5.01756
21
-2.94146
0
LINE
8
BLACK
6
CONTINUOUS
10
5.01756
20
-2.94146
11
5.04413
21
-2.94146
0
LINE
8
BLACK
6
CONTINUOUS
10
5.04413
20
-2.94146
11
5.0479
21
-2.94221
0
LINE
8
BLACK
6
CONTINUOUS
10
4.96621
20
-2.94221
11
4.9694
21
-2.94434
0
LINE
8
BLACK
6
CONTINUOUS
10
4.9694
20
-2.94434
11
4.97153
21
-2.94753
0
LINE
8
BLACK
6
CONTINUOUS
10
4.97153
20
-2.94753
11
4.97228
21
-2.9513
0
LINE
8
BLACK
6
CONTINUOUS
10
4.97228
20
-2.9513
11
4.97228
21
-2.9887
0
LINE
8
BLACK
6
CONTINUOUS
10
4.97228
20
-2.9887
11
4.97153
21
-2.99247
0
LINE
8
BLACK
6
CONTINUOUS
10
4.97153
20
-2.99247
11
4.9694
21
-2.99566
0
LINE
8
BLACK
6
CONTINUOUS
10
4.9694
20
-2.99566
11
4.96621
21
-2.99779
0
LINE
8
BLACK
6
CONTINUOUS
10
4.96621
20
-2.99779
11
4.96244
21
-2.99854
0
LINE
8
BLACK
6
CONTINUOUS
10
4.96244
20
-2.99854
11
4.93587
21
-2.99854
0
LINE
8
BLACK
6
CONTINUOUS
10
4.93587
20
-2.99854
11
4.9321
21
-2.99779
0
LINE
8
BLACK
6
CONTINUOUS
10
4.9321
20
-2.99779
11
4.92891
21
-2.99566
0
LINE
8
BLACK
6
CONTINUOUS
10
4.92891
20
-2.99566
11
4.92677
21
-2.99247
0
LINE
8
BLACK
6
CONTINUOUS
10
4.92677
20
-2.99247
11
4.92602
21
-2.9887
0
LINE
8
BLACK
6
CONTINUOUS
10
4.92602
20
-2.9887
11
4.92602
21
-2.9513
0
LINE
8
BLACK
6
CONTINUOUS
10
4.92602
20
-2.9513
11
4.92677
21
-2.94753
0
LINE
8
BLACK
6
CONTINUOUS
10
4.92677
20
-2.94753
11
4.92891
21
-2.94434
0
LINE
8
BLACK
6
CONTINUOUS
10
4.92891
20
-2.94434
11
4.9321
21
-2.94221
0
LINE
8
BLACK
6
CONTINUOUS
10
4.9321
20
-2.94221
11
4.93587
21
-2.94146
0
LINE
8
BLACK
6
CONTINUOUS
10
4.93587
20
-2.94146
11
4.96244
21
-2.94146
0
LINE
8
BLACK
6
CONTINUOUS
10
4.96244
20
-2.94146
11
4.96621
21
-2.94221
0
LINE
8
BLACK
6
CONTINUOUS
10
5.0479
20
-2.86221
11
5.05109
21
-2.86434
0
LINE
8
BLACK
6
CONTINUOUS
10
5.05109
20
-2.86434
11
5.05323
21
-2.86753
0
LINE
8
BLACK
6
CONTINUOUS
10
5.05323
20
-2.86753
11
5.05398
21
-2.8713
0
LINE
8
BLACK
6
CONTINUOUS
10
5.05398
20
-2.8713
11
5.05398
21
-2.9087
0
LINE
8
BLACK
6
CONTINUOUS
10
5.05398
20
-2.9087
11
5.05323
21
-2.91247
0
LINE
8
BLACK
6
CONTINUOUS
10
5.05323
20
-2.91247
11
5.05109
21
-2.91566
0
LINE
8
BLACK
6
CONTINUOUS
10
5.05109
20
-2.91566
11
5.0479
21
-2.91779
0
LINE
8
BLACK
6
CONTINUOUS
10
5.0479
20
-2.91779
11
5.04413
21
-2.91854
0
LINE
8
BLACK
6
CONTINUOUS
10
5.04413
20
-2.91854
11
5.01756
21
-2.91854
0
LINE
8
BLACK
6
CONTINUOUS
10
5.01756
20
-2.91854
11
5.01379
21
-2.91779
0
LINE
8
BLACK
6
CONTINUOUS
10
5.01379
20
-2.91779
11
5.0106
21
-2.91566
0
LINE
8
BLACK
6
CONTINUOUS
10
5.0106
20
-2.91566
11
5.00847
21
-2.91247
0
LINE
8
BLACK
6
CONTINUOUS
10
5.00847
20
-2.91247
11
5.00772
21
-2.9087
0
LINE
8
BLACK
6
CONTINUOUS
10
5.00772
20
-2.9087
11
5.00772
21
-2.8713
0
LINE
8
BLACK
6
CONTINUOUS
10
5.00772
20
-2.8713
11
5.00847
21
-2.86753
0
LINE
8
BLACK
6
CONTINUOUS
10
5.00847
20
-2.86753
11
5.0106
21
-2.86434
0
LINE
8
BLACK
6
CONTINUOUS
10
5.0106
20
-2.86434
11
5.01379
21
-2.86221
0
LINE
8
BLACK
6
CONTINUOUS
10
5.01379
20
-2.86221
11
5.01756
21
-2.86146
0
LINE
8
BLACK
6
CONTINUOUS
10
5.01756
20
-2.86146
11
5.04413
21
-2.86146
0
LINE
8
BLACK
6
CONTINUOUS
10
5.04413
20
-2.86146
11
5.0479
21
-2.86221
0
LINE
8
BLACK
6
CONTINUOUS
10
4.96621
20
-2.86221
11
4.9694
21
-2.86434
0
LINE
8
BLACK
6
CONTINUOUS
10
4.9694
20
-2.86434
11
4.97153
21
-2.86753
0
LINE
8
BLACK
6
CONTINUOUS
10
4.97153
20
-2.86753
11
4.97228
21
-2.8713
0
LINE
8
BLACK
6
CONTINUOUS
10
4.97228
20
-2.8713
11
4.97228
21
-2.9087
0
LINE
8
BLACK
6
CONTINUOUS
10
4.97228
20
-2.9087
11
4.97153
21
-2.91247
0
LINE
8
BLACK
6
CONTINUOUS
10
4.97153
20
-2.91247
11
4.9694
21
-2.91566
0
LINE
8
BLACK
6
CONTINUOUS
10
4.9694
20
-2.91566
11
4.96621
21
-2.91779
0
LINE
8
BLACK
6
CONTINUOUS
10
4.96621
20
-2.91779
11
4.96244
21
-2.91854
0
LINE
8
BLACK
6
CONTINUOUS
10
4.96244
20
-2.91854
11
4.93587
21
-2.91854
0
LINE
8
BLACK
6
CONTINUOUS
10
4.93587
20
-2.91854
11
4.9321
21
-2.91779
0
LINE
8
BLACK
6
CONTINUOUS
10
4.9321
20
-2.91779
11
4.92891
21
-2.91566
0
LINE
8
BLACK
6
CONTINUOUS
10
4.92891
20
-2.91566
11
4.92677
21
-2.91247
0
LINE
8
BLACK
6
CONTINUOUS
10
4.92677
20
-2.91247
11
4.92602
21
-2.9087
0
LINE
8
BLACK
6
CONTINUOUS
10
4.92602
20
-2.9087
11
4.92602
21
-2.8713
0
LINE
8
BLACK
6
CONTINUOUS
10
4.92602
20
-2.8713
11
4.92677
21
-2.86753
0
LINE
8
BLACK
6
CONTINUOUS
10
4.92677
20
-2.86753
11
4.92891
21
-2.86434
0
LINE
8
BLACK
6
CONTINUOUS
10
4.92891
20
-2.86434
11
4.9321
21
-2.86221
0
LINE
8
BLACK
6
CONTINUOUS
10
4.9321
20
-2.86221
11
4.93587
21
-2.86146
0
LINE
8
BLACK
6
CONTINUOUS
10
4.93587
20
-2.86146
11
4.96244
21
-2.86146
0
LINE
8
BLACK
6
CONTINUOUS
10
4.96244
20
-2.86146
11
4.96621
21
-2.86221
0
LINE
8
BLACK
6
CONTINUOUS
10
5.77268
20
-2.88362
11
5.73724
21
-2.88362
0
LINE
8
BLACK
6
CONTINUOUS
10
5.73724
20
-2.88362
11
5.73724
21
-2.83638
0
LINE
8
BLACK
6
CONTINUOUS
10
5.73724
20
-2.83638
11
5.77268
21
-2.83638
0
LINE
8
BLACK
6
CONTINUOUS
10
5.77268
20
-2.83638
11
5.77268
21
-2.88362
0
LINE
8
BLACK
6
CONTINUOUS
10
5.64276
20
-2.88362
11
5.60732
21
-2.88362
0
LINE
8
BLACK
6
CONTINUOUS
10
5.60732
20
-2.88362
11
5.60732
21
-2.83638
0
LINE
8
BLACK
6
CONTINUOUS
10
5.60732
20
-2.83638
11
5.64276
21
-2.83638
0
LINE
8
BLACK
6
CONTINUOUS
10
5.64276
20
-2.83638
11
5.64276
21
-2.88362
  0
ENDSEC
  0
EOF
