%TF.GenerationSoftware,KiCad,Pcbnew,(6.0.2)*%
%TF.CreationDate,2024-05-20T16:03:31-05:00*%
%TF.ProjectId,Motorized-Commutator-Tx-PCB,4d6f746f-7269-47a6-9564-2d436f6d6d75,rev?*%
%TF.SameCoordinates,Original*%
%TF.FileFunction,Profile,NP*%
%FSLAX46Y46*%
G04 Gerber Fmt 4.6, Leading zero omitted, Abs format (unit mm)*
G04 Created by KiCad (PCBNEW (6.0.2)) date 2024-05-20 16:03:31*
%MOMM*%
%LPD*%
G01*
G04 APERTURE LIST*
%ADD10C,0.350000*%
G04 APERTURE END LIST*
D10*
X176530000Y-145222000D02*
X176504185Y-145733220D01*
X176428417Y-146229674D01*
X176305209Y-146708846D01*
X176137075Y-147168225D01*
X175926526Y-147605296D01*
X175676078Y-148017547D01*
X175388242Y-148402463D01*
X175065533Y-148757533D01*
X174710463Y-149080242D01*
X174325547Y-149368078D01*
X173913296Y-149618526D01*
X173476225Y-149829075D01*
X173016846Y-149997209D01*
X172537674Y-150120417D01*
X172041220Y-150196185D01*
X171530000Y-150222000D01*
X176530000Y-125222000D02*
X176530000Y-145222000D01*
X171530000Y-150222000D02*
X81530000Y-150222000D01*
X81530000Y-150222000D02*
X81018779Y-150196185D01*
X80522325Y-150120417D01*
X80043152Y-149997209D01*
X79583774Y-149829075D01*
X79146702Y-149618526D01*
X78734452Y-149368078D01*
X78349535Y-149080242D01*
X77994466Y-148757533D01*
X77671756Y-148402463D01*
X77383921Y-148017547D01*
X77133472Y-147605296D01*
X76922924Y-147168225D01*
X76754790Y-146708846D01*
X76631582Y-146229674D01*
X76555814Y-145733220D01*
X76530000Y-145222000D01*
X76530000Y-145222000D02*
X76530000Y-125222000D01*
X151530000Y-100222000D02*
X152816496Y-100254529D01*
X154086104Y-100351072D01*
X155337253Y-100510056D01*
X156568371Y-100729911D01*
X157777889Y-101009066D01*
X158964234Y-101345950D01*
X160125838Y-101738993D01*
X161261127Y-102186623D01*
X162368533Y-102687271D01*
X163446484Y-103239364D01*
X164493409Y-103841333D01*
X165507737Y-104491607D01*
X166487898Y-105188614D01*
X167432321Y-105930784D01*
X168339435Y-106716546D01*
X169207669Y-107544330D01*
X170035452Y-108412564D01*
X170821215Y-109319678D01*
X171563385Y-110264101D01*
X172260392Y-111244262D01*
X172910665Y-112258590D01*
X173512634Y-113305515D01*
X174064728Y-114383466D01*
X174565375Y-115490871D01*
X175013006Y-116626161D01*
X175406049Y-117787764D01*
X175742933Y-118974110D01*
X176022088Y-120183627D01*
X176241943Y-121414746D01*
X176400927Y-122665895D01*
X176497470Y-123935503D01*
X176530000Y-125222000D01*
X101530000Y-100222000D02*
X151530000Y-100222000D01*
X76530000Y-125222000D02*
X76562529Y-123935503D01*
X76659072Y-122665895D01*
X76818056Y-121414746D01*
X77037911Y-120183627D01*
X77317066Y-118974110D01*
X77653950Y-117787764D01*
X78046993Y-116626161D01*
X78494623Y-115490871D01*
X78995271Y-114383466D01*
X79547364Y-113305515D01*
X80149333Y-112258590D01*
X80799607Y-111244262D01*
X81496614Y-110264101D01*
X82238784Y-109319678D01*
X83024546Y-108412564D01*
X83852330Y-107544330D01*
X84720564Y-106716546D01*
X85627678Y-105930784D01*
X86572101Y-105188614D01*
X87552262Y-104491607D01*
X88566590Y-103841333D01*
X89613515Y-103239364D01*
X90691466Y-102687271D01*
X91798871Y-102186623D01*
X92934161Y-101738993D01*
X94095764Y-101345950D01*
X95282110Y-101009066D01*
X96491627Y-100729911D01*
X97722746Y-100510056D01*
X98973895Y-100351072D01*
X100243503Y-100254529D01*
X101530000Y-100222000D01*
M02*
