M48
INCH
T1C0.0157
T2C0.0350
T3C0.0354
T4C0.0394
T5C0.0402
T6C0.0550
T7C0.0728
%
G90
G05
T1
X5.58Y-4.1
X5.79Y-4.03
T2
X3.3Y-5.1
X3.3Y-5.2
X3.3Y-5.3
X3.6Y-4.8
X3.7Y-4.8
X3.8Y-4.8
X6.15Y-5.6
X6.25Y-5.6
X6.35Y-5.6
X6.65Y-5.1
X6.65Y-5.2
X6.65Y-5.3
T3
X4.0Y-5.075
X4.0Y-5.325
X4.2Y-5.075
X4.2Y-5.325
X5.75Y-5.075
X5.75Y-5.325
X5.95Y-5.075
X5.95Y-5.325
T4
X4.45Y-5.7
X4.45Y-5.8
X4.549Y-4.1488
X4.549Y-4.2488
X4.549Y-4.3488
X4.549Y-4.4488
X4.549Y-4.5488
X4.549Y-4.6488
X4.549Y-4.7488
X4.549Y-4.8488
X4.549Y-4.9488
X4.549Y-5.0488
X4.55Y-5.7
X4.55Y-5.8
X4.65Y-5.7
X4.65Y-5.8
X4.75Y-5.7
X4.75Y-5.8
X5.449Y-4.1496
X5.449Y-4.2496
X5.449Y-4.3496
X5.449Y-4.4496
X5.449Y-4.5496
X5.449Y-4.6496
X5.449Y-4.7496
X5.449Y-4.8496
X5.449Y-4.9496
X5.449Y-5.0496
X5.449Y-5.1496
X5.449Y-5.2496
X5.449Y-5.3496
X5.449Y-5.4496
T5
X4.7Y-4.15
X4.7Y-4.25
X4.7Y-4.35
X4.7Y-4.45
X4.7Y-4.55
X4.7Y-4.65
X4.7Y-4.75
X4.7Y-4.85
X4.7Y-4.95
X4.7Y-5.05
X4.7Y-5.15
X4.7Y-5.25
X4.7Y-5.35
X4.7Y-5.45
X4.8Y-5.45
X4.9Y-5.45
X5.0Y-5.45
X5.1Y-5.45
X5.2Y-5.45
X5.3Y-4.15
X5.3Y-4.25
X5.3Y-4.35
X5.3Y-4.45
X5.3Y-4.55
X5.3Y-4.65
X5.3Y-4.75
X5.3Y-4.85
X5.3Y-4.95
X5.3Y-5.05
X5.3Y-5.15
X5.3Y-5.25
X5.3Y-5.35
X5.3Y-5.45
T6
X3.4375Y-4.9
X3.4375Y-5.5
X3.9625Y-4.9
X3.9625Y-5.5
X5.9875Y-4.9
X5.9875Y-5.5
X6.5125Y-4.9
X6.5125Y-5.5
T7
X5.365Y-5.75
X5.55Y-5.75
X5.735Y-5.75
T0
M30
